<?xml version="1.0" encoding="UTF-8" standalone="no"?>
<svg
   xmlns:dc="http://purl.org/dc/elements/1.1/"
   xmlns:cc="http://creativecommons.org/ns#"
   xmlns:rdf="http://www.w3.org/1999/02/22-rdf-syntax-ns#"
   xmlns:svg="http://www.w3.org/2000/svg"
   xmlns="http://www.w3.org/2000/svg"
   xmlns:sodipodi="http://sodipodi.sourceforge.net/DTD/sodipodi-0.dtd"
   xmlns:inkscape="http://www.inkscape.org/namespaces/inkscape"
   width="125"
   height="85"
   viewBox="0 0 125 85"
   fill="none"
   version="1.1"
   id="svg10"
   sodipodi:docname="downloads-dotnet.svg"
   inkscape:version="1.0.1 (3bc2e813f5, 2020-09-07)">
  <metadata
     id="metadata16">
    <rdf:RDF>
      <cc:Work
         rdf:about="">
        <dc:format>image/svg+xml</dc:format>
        <dc:type
           rdf:resource="http://purl.org/dc/dcmitype/StillImage" />
        <dc:title></dc:title>
      </cc:Work>
    </rdf:RDF>
  </metadata>
  <defs
     id="defs14" />
  <sodipodi:namedview
     pagecolor="#ffffff"
     bordercolor="#666666"
     borderopacity="1"
     objecttolerance="10"
     gridtolerance="10"
     guidetolerance="10"
     inkscape:pageopacity="0"
     inkscape:pageshadow="2"
     inkscape:window-width="3200"
     inkscape:window-height="1721"
     id="namedview12"
     showgrid="false"
     inkscape:zoom="10.072"
     inkscape:cx="62.5"
     inkscape:cy="23.5"
     inkscape:window-x="-9"
     inkscape:window-y="-9"
     inkscape:window-maximized="1"
     inkscape:current-layer="svg10" />
  <path
     d="m 3.52515,46.2428 c -0.97391,0 -1.81021,-0.3494 -2.50889,-1.0481 C 0.338753,44.496 0,43.6596 0,42.6856 c 0,-0.9739 0.338753,-1.8103 1.01626,-2.509 0.69868,-0.7199 1.53498,-1.0799 2.50889,-1.0799 0.99509,0 1.84197,0.36 2.54065,1.0799 0.69868,0.6987 1.04802,1.5351 1.04802,2.509 0,0.974 -0.34934,1.8104 -1.04802,2.5091 -0.69868,0.6987 -1.54556,1.0481 -2.54065,1.0481 z"
     fill="#512bd4"
     id="path2" />
  <path
     d="M 53.2266,45.5441 H 46.6845 L 23.247,9.2422 C 22.6541,8.33175 22.1672,7.37894 21.7861,6.38379 h -0.1906 c 0.1694,0.97398 0.2541,3.05956 0.2541,6.25671 V 45.5441 H 16.5142 V 0 h 6.9233 l 22.8023,35.7302 c 0.9528,1.4821 1.5668,2.4984 1.842,3.0489 h 0.127 C 47.9971,37.4664 47.8913,35.2326 47.8913,32.0777 V 0 h 5.3353 z"
     fill="#512bd4"
     id="path4" />
  <path
     d="M 89.3039,45.5441 H 65.1677 V 0 H 88.2876 V 4.82754 H 70.503 V 19.9771 h 16.4508 v 4.7958 H 70.503 v 15.9436 h 18.8009 z"
     fill="#512bd4"
     id="path6" />
  <path
     d="M 125,4.82754 H 111.852 V 45.5441 h -5.335 V 4.82754 H 93.4007 V 0 H 125 Z"
     fill="#512bd4"
     id="path8" />
</svg>
