<?xml version="1.0" encoding="UTF-8" standalone="no"?>
<svg
   xmlns:dc="http://purl.org/dc/elements/1.1/"
   xmlns:cc="http://creativecommons.org/ns#"
   xmlns:rdf="http://www.w3.org/1999/02/22-rdf-syntax-ns#"
   xmlns:svg="http://www.w3.org/2000/svg"
   xmlns="http://www.w3.org/2000/svg"
   xmlns:sodipodi="http://sodipodi.sourceforge.net/DTD/sodipodi-0.dtd"
   xmlns:inkscape="http://www.inkscape.org/namespaces/inkscape"
   width="130"
   height="51"
   viewBox="0 0 130 51"
   version="1.1"
   id="svg10"
   sodipodi:docname="downloads-dotnet.svg"
   inkscape:version="0.92.4 (5da689c313, 2019-01-14)"
   style="fill:none">
  <metadata
     id="metadata16">
    <rdf:RDF>
      <cc:Work
         rdf:about="">
        <dc:format>image/svg+xml</dc:format>
        <dc:type
           rdf:resource="http://purl.org/dc/dcmitype/StillImage" />
        <dc:title></dc:title>
      </cc:Work>
    </rdf:RDF>
  </metadata>
  <defs
     id="defs14" />
  <sodipodi:namedview
     pagecolor="#ffffff"
     bordercolor="#666666"
     borderopacity="1"
     objecttolerance="10"
     gridtolerance="10"
     guidetolerance="10"
     inkscape:pageopacity="0"
     inkscape:pageshadow="2"
     inkscape:window-width="3840"
     inkscape:window-height="2019"
     id="namedview12"
     showgrid="false"
     inkscape:zoom="10.072"
     inkscape:cx="62.5"
     inkscape:cy="23.5"
     inkscape:window-x="-14"
     inkscape:window-y="-14"
     inkscape:window-maximized="1"
     inkscape:current-layer="svg10" />
  <path
     d="m 6.0072787,49.176875 c -0.97391,0 -1.81021,-0.3494 -2.50889,-1.0481 -0.677507,-0.6987 -1.01626,-1.5351 -1.01626,-2.5091 0,-0.9739 0.338753,-1.8103 1.01626,-2.509 0.69868,-0.7199 1.53498,-1.0799 2.50889,-1.0799 0.99509,0 1.84197,0.36 2.54065,1.0799 0.69868,0.6987 1.04802,1.5351 1.04802,2.509 0,0.974 -0.34934,1.8104 -1.04802,2.5091 -0.69868,0.6987 -1.54556,1.0481 -2.54065,1.0481 z"
     id="path2"
     inkscape:connector-curvature="0"
     style="fill:#512bd4" />
  <path
     d="m 55.708728,48.478175 h -6.5421 l -23.4375,-36.3019 c -0.5929,-0.91045 -1.0798,-1.86326 -1.4609,-2.85841 h -0.1906 c 0.1694,0.97398 0.2541,3.05956 0.2541,6.25671 v 32.9036 h -5.3354 v -45.5441 h 6.9233 l 22.8023,35.7302 c 0.9528,1.4821 1.5668,2.4984 1.842,3.0489 h 0.127 c -0.2117,-1.3127 -0.3175,-3.5465 -0.3175,-6.7014 v -32.0777 h 5.3353 z"
     id="path4"
     inkscape:connector-curvature="0"
     style="fill:#512bd4" />
  <path
     d="m 91.786028,48.478175 h -24.1362 v -45.5441 h 23.1199 v 4.82754 h -17.7846 v 15.14956 h 16.4508 v 4.7958 h -16.4508 v 15.9436 h 18.8009 z"
     id="path6"
     inkscape:connector-curvature="0"
     style="fill:#512bd4" />
  <path
     d="m 127.48213,7.761615 h -13.148 v 40.71656 h -5.335 V 7.761615 H 95.882828 v -4.82754 h 31.599302 z"
     id="path8"
     inkscape:connector-curvature="0"
     style="fill:#512bd4" />
</svg>
