<?xml version="1.0" encoding="utf-8"?>
<!-- Generator: Adobe Illustrator 24.0.3, SVG Export Plug-In . SVG Version: 6.00 Build 0)  -->
<svg version="1.1" id="Layer_1" xmlns="http://www.w3.org/2000/svg" xmlns:xlink="http://www.w3.org/1999/xlink" x="0px" y="0px"
	 viewBox="0 0 25 25" style="enable-background:new 0 0 25 25;" xml:space="preserve">
<style type="text/css">
	.st0{fill:#005893;}
</style>
<g>
	<path class="st0" d="M12.5,1.5c-6.1,0-11,4.9-11,11s4.9,11,11,11s11-4.9,11-11S18.6,1.5,12.5,1.5z M21.1,18.3
		c-0.4,0.5-0.8,1.1-1.3,1.5c-0.5,0.5-1,0.9-1.5,1.3c-0.6,0.4-1.1,0.7-1.8,1c-1.3,0.5-2.6,0.8-4,0.8s-2.8-0.3-4-0.8
		c-0.6-0.3-1.2-0.6-1.8-1c-0.5-0.4-1.1-0.8-1.5-1.3c-0.5-0.5-0.9-1-1.3-1.5c-0.4-0.6-0.7-1.1-1-1.8c-0.5-1.3-0.8-2.6-0.8-4
		s0.3-2.8,0.8-4c0.3-0.6,0.6-1.2,1-1.8c0.4-0.5,0.8-1.1,1.3-1.5c0.5-0.5,1-0.9,1.5-1.3c0.6-0.4,1.1-0.7,1.8-1c1.3-0.5,2.6-0.8,4-0.8
		s2.8,0.3,4,0.8c0.6,0.3,1.2,0.6,1.8,1c0.5,0.4,1.1,0.8,1.5,1.3c0.5,0.5,0.9,1,1.3,1.5c0.4,0.6,0.7,1.1,1,1.8c0.5,1.3,0.8,2.6,0.8,4
		s-0.3,2.8-0.8,4C21.8,17.1,21.4,17.7,21.1,18.3z"/>
	<path class="st0" d="M13.6,12.7c0.6-0.4,0.6-0.9,0.4-1.4c-0.2-0.5-0.7-0.7-1.2-0.7c-0.5,0-1.1,0-1.6,0c0,1.5,0,3,0,4.5
		c0.6,0,1.2,0,1.7,0c0.7,0,1.1-0.5,1.2-1.2C14.3,13.4,14.1,13,13.6,12.7z M12.3,11.4c0.3,0.1,0.6,0.1,0.7,0.2c0.1,0.1,0.1,0.5,0,0.6
		c-0.2,0.1-0.4,0.2-0.7,0.3C12.3,12.1,12.3,11.8,12.3,11.4z M13.1,14.1c-0.1,0.2-0.5,0.2-0.8,0.3c0-0.5,0-0.8,0-1.3
		c0.3,0.1,0.6,0.1,0.8,0.3C13.2,13.5,13.2,13.9,13.1,14.1z"/>
	<path class="st0" d="M9.1,10.6c-0.6,0-1.1,0.2-1.3,0.8c-0.2,0.5-0.3,1-0.4,1.5c0.1,0.5,0.2,1,0.3,1.4c0.2,0.6,0.7,0.9,1.3,0.9
		c0.6,0,1.1-0.2,1.4-0.8c0.4-1,0.4-2,0-3C10.2,10.8,9.7,10.6,9.1,10.6z M9.5,13.9c0,0.1-0.3,0.3-0.4,0.3c-0.1,0-0.4-0.2-0.4-0.3
		c0-0.7,0-1.4,0-2c0-0.1,0.3-0.3,0.4-0.3c0.1,0,0.3,0.2,0.4,0.3c0.1,0.3,0.1,0.7,0.1,1C9.6,13.3,9.6,13.6,9.5,13.9z"/>
	<path class="st0" d="M16.3,10.6c-0.6,0-1.1,0.3-1.4,0.9c-0.4,1-0.4,1.9,0,2.9c0.2,0.6,0.7,0.8,1.3,0.8c0.6,0,1.1-0.2,1.3-0.8
		c0.2-0.5,0.3-1,0.4-1.5c-0.1-0.5-0.2-1-0.3-1.5C17.4,10.9,16.9,10.6,16.3,10.6z M16.6,13.9c0,0.1-0.2,0.3-0.4,0.3
		c-0.1,0-0.3-0.2-0.4-0.3c-0.2-0.7-0.2-1.4,0-2.1c0-0.1,0.2-0.3,0.4-0.3s0.3,0.2,0.4,0.3c0.1,0.3,0.1,0.7,0.2,1.1
		C16.7,13.3,16.7,13.6,16.6,13.9z"/>
	<path class="st0" d="M5.7,11.5c0.1,0,0.2,0.1,0.3,0.2c0.1,0.1,0.1,0.3,0.2,0.5c0.3-0.1,0.7-0.2,1-0.3c-0.1-0.6-0.3-1.1-1-1.3
		c-0.9-0.2-1.6,0.1-1.9,1c-0.3,0.9-0.3,1.7,0,2.6c0.2,0.7,0.8,1,1.6,1c0.7-0.1,1.1-0.5,1.2-1.3c-0.3-0.1-0.6-0.2-0.9-0.3
		c0,0.1-0.1,0.2-0.1,0.2C6.1,14,6,14.3,5.7,14.3c-0.3,0-0.4-0.3-0.4-0.6c0-0.5,0-1,0-1.6c0-0.1,0-0.3,0.1-0.4
		C5.5,11.6,5.6,11.5,5.7,11.5z"/>
	<path class="st0" d="M19.5,10.7c-0.4,0-0.7,0-1,0c0,1.5,0,2.9,0,4.4c0.8,0,1.6,0,2.4,0c0-0.3,0-0.6,0-0.9c-0.5,0-0.9,0-1.4,0
		C19.5,13,19.5,11.8,19.5,10.7z"/>
</g>
</svg>
