<?xml version="1.0" encoding="UTF-8" standalone="no"?>
<!-- Created with Inkscape (http://www.inkscape.org/) -->

<svg
   xmlns:dc="http://purl.org/dc/elements/1.1/"
   xmlns:cc="http://creativecommons.org/ns#"
   xmlns:rdf="http://www.w3.org/1999/02/22-rdf-syntax-ns#"
   xmlns:svg="http://www.w3.org/2000/svg"
   xmlns="http://www.w3.org/2000/svg"
   xmlns:sodipodi="http://sodipodi.sourceforge.net/DTD/sodipodi-0.dtd"
   xmlns:inkscape="http://www.inkscape.org/namespaces/inkscape"
   version="1.1"
   id="svg2"
   width="1280"
   height="512"
   viewBox="0 0 1280 512"
   sodipodi:docname="IBM Services.svg"
   inkscape:version="0.92.4 (5da689c313, 2019-01-14)">
  <metadata
     id="metadata8">
    <rdf:RDF>
      <cc:Work
         rdf:about="">
        <dc:format>image/svg+xml</dc:format>
        <dc:type
           rdf:resource="http://purl.org/dc/dcmitype/StillImage" />
        <dc:title></dc:title>
      </cc:Work>
    </rdf:RDF>
  </metadata>
  <defs
     id="defs6" />
  <sodipodi:namedview
     pagecolor="#ffffff"
     bordercolor="#666666"
     borderopacity="1"
     objecttolerance="10"
     gridtolerance="10"
     guidetolerance="10"
     inkscape:pageopacity="0"
     inkscape:pageshadow="2"
     inkscape:window-width="1916"
     inkscape:window-height="2003"
     id="namedview4"
     showgrid="false"
     inkscape:zoom="0.65186406"
     inkscape:cx="694.29865"
     inkscape:cy="120.91143"
     inkscape:window-x="1908"
     inkscape:window-y="0"
     inkscape:window-maximized="0"
     inkscape:current-layer="svg2" />
  <g
     id="g12"
     transform="translate(1.7746895,-0.26320481)">
    <path
       style="fill:#6099d2"
       d="M 2,494.5 V 477 H 127 252 V 494.5 512 H 127 2 Z m 282,0 V 477 h 177.17431 177.17432 l -2.37525,2.52834 c -2.95893,3.14963 -17.32215,12.97154 -25.97338,17.7612 -9.65698,5.34649 -23.3486,10.33606 -34.72347,12.65411 C 565.3763,511.96119 562.53209,512 424.59292,512 H 284 Z m 427,0 V 477 h 89 89 v 17.5 17.5 h -89 -89 z m 283.01583,15.32855 c -0.55708,-1.2807 -3.44284,-9.07855 -6.4128,-17.32855 l -5.39991,-15 13.03513,-0.27998 c 7.16935,-0.15398 13.25455,-0.0606 13.52265,0.20759 0.8068,0.80674 -11.31493,33.92373 -12.57009,34.34212 -0.63916,0.21305 -1.6179,-0.66048 -2.17498,-1.94118 z M 1101,494.5 V 477 h 89.5 89.5 V 494.5 512 H 1190.5 1101 Z M 2,426 V 407.99222 L 126.75,408.24611 251.5,408.5 V 426 443.5 L 126.75,443.75389 2,444.00778 Z M 284.22692,426.25255 284.5,408.5 l 197.86176,-0.25249 197.86175,-0.25248 -0.6749,3.75248 c -1.48387,8.25032 -5.06171,19.71197 -7.98147,25.56872 L 668.48436,443.5 476.21909,443.75255 283.95383,444.0051 Z M 711,426 v -18 h 89 89 v 18 18 h -89 -89 z m 258.4998,16.76693 c -0.24774,-0.69681 -3.10114,-8.56483 -6.34088,-17.48449 -3.23975,-8.91967 -5.65086,-16.45717 -5.35802,-16.75 0.83605,-0.83605 75.0313,-0.62224 75.4971,0.21756 0.2288,0.4125 -2.3321,8.4 -5.691,17.75 l -6.107,17 -25.77489,0.26693 c -20.09296,0.20809 -25.87418,-0.0124 -26.22531,-1 z M 1101,426 v -18 h 89.5 89.5 v 18 18 H 1190.5 1101 Z M 71.44283,374.71161 c -0.271921,-0.70861 -0.370298,-8.69611 -0.218616,-17.75 L 71.5,340.5 125.75,340.24139 180,339.98278 V 357.99139 376 h -54.03138 c -43.161229,0 -54.130854,-0.2592 -54.52579,-1.28839 z M 356,358 v -18.01737 l 53.75,0.25868 53.75,0.25869 v 17.5 17.5 l -53.75,0.25869 -53.75,0.25868 z m 212,0 v -18 h 53.91847 53.91847 l 2.03625,6.25 C 680.23877,353.5108 683,367.70821 683,372.61047 V 376 H 625.5 568 Z m 213,0 v -18 h 54 54 v 18 18 h -54 -54 z m 158.14664,0.92508 C 935.76599,349.53387 933,341.43387 933,340.92508 933,340.36816 957.91603,340 995.60699,340 c 49.64821,0 62.51801,0.25873 62.17701,1.25 -0.2365,0.6875 -3.0668,8.7875 -6.2896,18 l -5.8597,16.75 h -50.17071 -50.1707 z M 1101,358 v -18.01737 l 53.75,0.25868 53.75,0.25869 v 17.5 17.5 l -53.75,0.25869 -53.75,0.25868 z M 71.44283,306.71161 c -0.271921,-0.70861 -0.370298,-8.69611 -0.218616,-17.75 L 71.5,272.5 125.75,272.24139 180,271.98278 V 289.99139 308 h -54.03138 c -43.161229,0 -54.130854,-0.2592 -54.52579,-1.28839 z M 356,290 v -18 h 137.66327 137.66326 l 11.70414,11.75 c 9.89072,9.92948 17.92163,20.43766 17.95995,23.5 C 660.99578,307.6625 592.375,308 508.5,308 H 356 Z m 425,0 v -18 h 54 54 v 18 18 h -54 -54 z m 139.59261,17.14984 C 919.99507,306.183 908,273.12322 908,272.44317 908,272.19943 947.15,272 995,272 c 52.2703,0 87,0.36714 87,0.91972 0,0.50584 -2.7521,8.60584 -6.1157,18 L 1069.7685,308 h -74.32521 c -40.87889,0 -74.5617,-0.38257 -74.85068,-0.85016 z M 1101,290 v -18.01737 l 53.75,0.25868 53.75,0.25869 v 17.5 17.5 l -53.75,0.25869 -53.75,0.25868 z M 71.226386,221.75 71.5,204.5 125.75,204.24139 180,203.98278 V 221.49139 239 H 125.47639 70.952772 Z M 356,221.5 V 204 h 152.5 c 83.875,0 152.49578,0.3375 152.49062,0.75 -0.037,2.95284 -8.03446,13.52207 -17.40361,23 L 632.46613,239 H 494.23307 356 Z m 425,-0.005 v -17.50471 l 102.13095,0.25471 102.13095,0.25472 5.01555,14.3035 c 2.75856,7.86692 5.3285,13.94192 5.71099,13.5 0.38249,-0.44193 2.84226,-6.991 5.46616,-14.5535 l 4.7707,-13.75 H 1107.6127 1209 v 17.5 17.5 h -53.9611 -53.961 l -0.289,-8.75 -0.2889,-8.75 -2.9867,8.75 -2.9866,8.75 -99.51337,-0.003 -99.51333,-0.003 -3.17508,-8.74715 -3.17509,-8.74715 -0.0749,8.75 L 889,239 H 835 781 V 221.49528 Z M 71,153.5 V 136 H 125.5 180 V 153.5 171 H 125.5 71 Z m 285,-0.009 v -17.50868 l 53.75,0.25868 53.75,0.25869 0.27361,17.25 0.27362,17.25 H 410.02361 356 Z M 568,153.5 V 136 h 57.6436 57.6436 l -0.64232,6.75 c -0.6473,6.80228 -3.60728,20.40841 -5.54747,25.5 L 676.0495,171 H 622.02475 568 Z m 213,0 V 136 h 89.85381 89.85381 l 5.58116,15.75 c 3.06963,8.6625 5.88356,16.5375 6.25317,17.5 0.63715,1.65919 -4.31515,1.75 -95.43496,1.75 H 781 Z m 237.4854,15.75 c 0.3846,-0.9625 3.1872,-8.8375 6.2281,-17.5 L 1030.2423,136 H 1119.6211 1209 v 17.5 17.5 h -95.607 c -90.654,0 -95.5707,-0.0907 -94.9076,-1.75 z M 0,85.5 V 68 H 125 250 V 85.5 103 H 125 0 Z M 284,85.4974 V 67.994849 l 192.24218,0.252551 192.24218,0.252551 3.08278,6.183774 c 2.76157,5.539432 6.08788,16.056325 7.92801,25.066226 L 680.15891,103 H 482.07946 284 V 85.497449 Z M 709,85.4957 V 67.991445 L 822.75,68.2457 936.5,68.5 939.15084,76 c 1.45796,4.125 4.25103,11.8875 6.20682,17.25 l 3.55598,9.75 H 828.95682 709 V 85.495746 Z m 333.1667,16.70561 c 0.1833,-0.43925 2.9793,-8.314245 6.2133,-17.499994 L 1054.2601,68 H 1166.13 1278 V 85.5 103 h -118.0833 c -64.9459,0 -117.9334,-0.35939 -117.75,-0.79864 z M 0,17.5 V 0 H 125 250 V 17.5 35 H 125 0 Z m 284,0 V 0 h 140.59292 c 138.011,0 140.77944,0.03783614 150.75,2.0602894 11.11525,2.2546463 24.53549,7.1722067 34.65708,12.6993456 8.4864,4.634202 22.95935,14.503746 25.97338,17.712026 L 638.34863,35 H 461.17431 284 Z M 709,17.4953 V -0.00943802 L 810.59945,0.24526199 912.1989,0.5 918.09525,17 c 3.24299,9.075 5.89824,16.8375 5.90055,17.25 C 923.99811,34.6625 875.625,35 816.5,35 H 709 V 17.495262 Z m 363.034,0.407202 C 1075.3153,8.4988189 1078,0.62381894 1078,0.40246383 1078,0.18110872 1123,0 1178,0 h 100 V 17.5 35 h -105.966 -105.9659 l 5.9659,-17.097536 z"
       id="path16"
       inkscape:connector-curvature="0" />
    <path
       style="fill:#1e6fc0"
       d="M 2,494 V 477 H 126.5 251 v 17 17 H 126.5 2 Z m 283,0 v -17 l 176.75,0.0269 176.75,0.0269 -3.5,2.96455 c -11.25723,9.53502 -31.37405,20.94379 -44.8333,25.42613 -17.36957,5.7846 -9.54147,5.51931 -163.4167,5.53816 L 285,511 Z m 426,0 v -17 h 89 89 v 17 17 h -89 -89 z m 282.92214,14.33128 C 990.56751,499.61891 983,478.45449 983,477.78479 983,477.35315 988.85,477 996,477 c 7.15,0 12.9877,0.1125 12.9726,0.25 -0.2799,2.55826 -12.03131,33.26957 -12.83242,33.53661 -0.62033,0.20677 -1.61845,-0.89812 -2.21804,-2.45533 z M 1101,494 v -17 h 89.5 89.5 v 17 17 H 1190.5 1101 Z M 2,426 V 409 H 126.5 251 v 17 17 H 126.5 2 Z m 283,0 v -17 h 197.41131 197.41131 l -1.43583,6.25 c -2.06903,9.00625 -6.07747,20.73183 -8.37543,24.5 L 668.0294,443 H 476.5147 285 Z m 426,0 v -17 h 89 89 v 17 17 h -89 -89 z m 259,16.69411 c 0,-0.18681 -2.7,-7.69916 -6,-16.69411 -3.3,-8.99495 -6,-16.49971 -6,-16.67723 C 958,409.14525 974.875,409 995.5,409 c 20.625,0 37.478,0.3375 37.4511,0.75 -0.027,0.4125 -2.6382,7.95 -5.8031,16.75 l -5.7542,16 -25.6969,0.26688 C 981.56361,442.91367 970,442.88092 970,442.69411 Z M 1101,426 v -17 h 89.5 89.5 v 17 17 H 1190.5 1101 Z M 72,358 v -17 h 54 54 v 17 17 H 126 72 Z m 284,0 v -17 h 53.5 53.5 v 17 17 H 409.5 356 Z m 213,0 v -17 h 53.42245 53.42245 l 1.02815,3.25 c 2.44044,7.71421 4.37304,16.75591 5.02295,23.5 l 0.69867,7.25 H 625.79734 569 Z m 212,0 v -17 h 54 54 v 17 17 h -54 -54 z m 158.41247,0.25 -6.02398,-16.75 61.46474,-0.25769 c 33.80557,-0.14173 61.67277,-0.0496 61.92707,0.20462 0.2542,0.25426 -2.1798,7.90506 -5.409,17.00176 l -5.8713,16.53945 -50.03178,0.006 -50.03178,0.006 -6.02397,-16.75 z M 1101,358 v -17 h 53.5 53.5 v 17 17 H 1154.5 1101 Z M 72,290 v -17 h 54 54 v 17 17 H 126 72 Z m 284,0 v -17 h 137.90796 137.90796 l 9.96263,9.75 C 650.40316,291.19054 660,303.51746 660,306.15504 660,306.61977 591.6,307 508,307 H 356 Z m 425,0 v -17 h 54 54 v 17 17 h -54 -54 z m 139.68316,16.25 c -1.31215,-2.26295 -11.85117,-32.41532 -11.46498,-32.80152 0.25281,-0.25281 39.14099,-0.34464 86.41816,-0.20406 l 85.95856,0.25558 -5.948,16.75 -5.9479,16.75 h -74.29046 c -40.85978,0 -74.4862,-0.3375 -74.72538,-0.75 z M 1101,290 v -17 h 53.5 53.5 v 17 17 H 1154.5 1101 Z M 72,222 v -17 h 54 54 v 17 17 H 126 72 Z m 284,0 v -17 h 152 c 83.6,0 152,0.38023 152,0.84496 0,2.63758 -9.59684,14.9645 -18.22145,23.40504 L 631.81592,239 H 493.90796 356 Z m 425,0 v -17 h 101.89301 c 80.59369,0 101.99259,0.2613 102.36936,1.25 0.26199,0.6875 2.62355,7.23909 5.24789,14.5591 2.62435,7.32 5.10554,12.945 5.51374,12.5 0.40821,-0.44501 2.90724,-6.9966 5.5534,-14.5591 L 1006.3886,205 H 1107.1943 1208 v 17 17 h -53.4625 -53.4624 l -0.2876,-9.25 -0.2875,-9.25 -3.3325,9.25 -3.3326,9.25 H 995 896.16507 l -3.33253,-9.25 -3.33254,-9.25 -0.28753,9.25 -0.28752,9.25 H 834.96247 781 Z M 72,154 v -17 h 54 54 v 17 17 H 126 72 Z m 284,0 v -17 h 53.5 53.5 v 17 17 H 409.5 356 Z m 213,0 v -17 h 56.79734 56.79733 l -0.69867,7.25 c -0.64991,6.74409 -2.58251,15.78579 -5.02295,23.5 L 675.8449,171 H 622.42245 569 Z m 212,0 v -17 l 89.75,0.002 89.75,0.002 6.10167,16.99813 L 972.70334,171 H 876.85167 781 Z m 237.9874,16.25 c -0.01,-0.4125 2.5535,-8.0625 5.6898,-17 L 1030.3794,137 H 1119.1897 1208 v 17 17 h -94.5 c -51.975,0 -94.5056,-0.3375 -94.5126,-0.75 z M 0,85.5 V 68 H 124.5 249 V 85.5 103 H 124.5 0 Z M 285,85.4974 V 67.994836 l 191.21018,0.252564 191.21018,0.252564 2.22483,3.301446 c 2.4464,3.630234 6.5054,15.214624 8.7416,24.948554 L 679.82262,103 H 482.41131 285 V 85.497436 Z M 709.22639,85.75 709.5,68.5 l 113.15069,-0.254261 113.15069,-0.254261 1.00179,2.754261 C 940.37311,80.560661 948,102.25311 948,102.59182 948,102.81632 894.21437,103 828.47639,103 H 708.95277 Z M 1043,102.16506 c 0,-0.45922 2.6322,-8.221719 5.8494,-17.250001 L 1054.6988,68.5 1166.3494,68.245672 1278,67.991344 V 85.495672 103 h -117.5 c -64.625,0 -117.5,-0.37572 -117.5,-0.83494 z M 0,17.5 V 0 H 124.5 249 V 17.5 35 H 124.5 0 Z m 285,0 V 0 L 422.25,0.00589511 C 571.21191,0.01229327 569.14508,-0.05713011 587.00416,5.5398738 602.3384,10.3456 623.22731,21.836352 635,31.941852 l 3.5,3.004346 -176.75,0.0269 L 285,35 Z m 424,0 V 0 h 101.33222 101.33222 l 1.05396,3.25 c 0.57968,1.7875 3.34061,9.6625 6.13541,17.5 L 923.93526,35 H 816.46763 709 Z m 358.0028,16.75 c 0,-0.4125 2.6446,-8.175 5.8735,-17.25 L 1078.747,0.5 1178.3735,0.24517049 1278,-0.00965903 V 17.49517 35 h -105.5 c -58.025,0 -105.4987,-0.3375 -105.4972,-0.75 z"
       id="path14"
       inkscape:connector-curvature="0" />
  </g>
</svg>
