<?xml version="1.0" encoding="UTF-8" standalone="no"?>
<!-- Created with Inkscape (http://www.inkscape.org/) -->

<svg
   xmlns:dc="http://purl.org/dc/elements/1.1/"
   xmlns:cc="http://creativecommons.org/ns#"
   xmlns:rdf="http://www.w3.org/1999/02/22-rdf-syntax-ns#"
   xmlns:svg="http://www.w3.org/2000/svg"
   xmlns="http://www.w3.org/2000/svg"
   xmlns:sodipodi="http://sodipodi.sourceforge.net/DTD/sodipodi-0.dtd"
   xmlns:inkscape="http://www.inkscape.org/namespaces/inkscape"
   width="210mm"
   height="297mm"
   viewBox="0 0 210 297"
   version="1.1"
   id="svg8"
   inkscape:version="0.92.4 (5da689c313, 2019-01-14)"
   sodipodi:docname="IBM_RDZ_RTC.svg">
  <defs
     id="defs2" />
  <sodipodi:namedview
     id="base"
     pagecolor="#ffffff"
     bordercolor="#666666"
     borderopacity="1.0"
     inkscape:pageopacity="0.0"
     inkscape:pageshadow="2"
     inkscape:zoom="0.7"
     inkscape:cx="363.31478"
     inkscape:cy="978.64563"
     inkscape:document-units="mm"
     inkscape:current-layer="layer1"
     showgrid="false"
     inkscape:window-width="1916"
     inkscape:window-height="2003"
     inkscape:window-x="1908"
     inkscape:window-y="0"
     inkscape:window-maximized="0" />
  <metadata
     id="metadata5">
    <rdf:RDF>
      <cc:Work
         rdf:about="">
        <dc:format>image/svg+xml</dc:format>
        <dc:type
           rdf:resource="http://purl.org/dc/dcmitype/StillImage" />
        <dc:title />
      </cc:Work>
    </rdf:RDF>
  </metadata>
  <g
     inkscape:label="Calque 1"
     inkscape:groupmode="layer"
     id="layer1">
    <g
       id="g21"
       transform="matrix(4.9197016,0,0,4.9197016,-227.10519,-83.274825)">
      <path
         style="fill:#e6f5f8;stroke-width:0.35277778"
         d="M 62.912959,58.772134 C 56.103318,56.938216 50.382825,51.117509 48.523434,44.130532 c -0.691238,-2.597447 -0.668776,-8.170781 0.04269,-10.591503 0.765829,-2.605696 2.674697,-6.161677 4.36572,-8.132788 1.787118,-2.083122 5.584218,-4.674254 8.30029,-5.664098 3.184584,-1.160588 9.542215,-1.328878 12.779804,-0.338288 12.67666,3.878616 18.258952,18.510626 11.490875,30.119265 -2.513181,4.310619 -7.379789,7.973501 -12.294686,9.253671 -2.561159,0.667096 -7.809649,0.664722 -10.295166,-0.0047 z m 14.292066,-5.649776 c 0.935504,-0.655252 0.995236,-1.305914 0.19349,-2.10766 -0.649428,-0.649428 -2.60167,-0.530263 -3.497862,0.213511 -0.658536,0.546536 -0.63071,0.756386 0.22161,1.671244 0.845273,0.907295 1.987721,0.989902 3.082762,0.222905 z M 56.469632,43.440972 c 0.835896,-0.835896 0.877138,-1.182318 0.20697,-1.738509 -1.22565,-1.017198 -4.087525,-0.628286 -4.087525,0.555472 0,1.719632 2.562691,2.500901 3.880555,1.183037 z M 75.568743,28.293629 c 0.667321,-0.547629 0.75736,-0.806928 0.453063,-1.304755 -0.795728,-1.301806 -3.752073,-1.263083 -4.258167,0.05578 -0.303615,0.791209 0.882056,1.932433 2.007698,1.932433 0.530516,0 1.339349,-0.307555 1.797406,-0.683454 z"
         id="path79"
         inkscape:connector-curvature="0"
         sodipodi:nodetypes="csssssssccsssssscsscssscc" />
      <path
         style="fill:#d1edf3;stroke-width:0.35277778"
         d="M 63.622464,58.782771 C 58.915853,57.760089 53.388908,53.764115 51.000024,49.656765 48.300218,45.014828 47.31484,38.898231 48.521028,34.26875 c 1.063065,-4.080159 2.524526,-6.639663 5.445494,-9.536871 4.59688,-4.559488 8.802209,-6.187277 15.203109,-5.884784 4.09992,0.193753 6.061083,0.75398 9.348611,2.670529 4.261294,2.48423 7.880406,7.319246 9.162207,12.240409 0.296548,1.138536 0.539182,3.432108 0.539182,5.096828 0,5.885014 -1.828247,10.297976 -5.994709,14.469829 -5.066556,5.073112 -11.579537,6.984063 -18.602458,5.458081 z m 14.013834,-5.816798 c 0.917961,-0.917962 0.895331,-2.045575 -0.06149,-3.064069 -1.474861,-1.569917 -4.260034,-0.60455 -4.260034,1.476569 0,2.014283 2.848395,3.060633 4.321528,1.5875 z M 56.909097,43.047337 c 0.6377,-0.857898 0.647285,-0.997561 0.136287,-1.985722 -0.90392,-1.74799 -2.563155,-2.015311 -3.943176,-0.635289 -1.056426,1.056426 -1.103347,2.071653 -0.140256,3.034744 1.028857,1.028858 3.030807,0.819017 3.947145,-0.413733 z M 71.223302,41.0761 c 0.631433,-0.619485 1.145591,-0.57828 0.896125,0.07182 -0.113828,0.296631 -0.0091,0.529166 0.238381,0.529166 0.673252,0 0.199018,-4.762141 -0.676274,-6.790972 -0.397617,-0.921632 -0.804744,-1.675695 -0.904727,-1.675695 -0.573331,0 -3.408226,1.323742 -4.683941,2.187145 -1.614712,1.092838 -3.797229,3.953196 -3.447791,4.518598 0.118908,0.192397 0.449935,0.349813 0.735615,0.349813 0.28568,0 0.610446,0.237213 0.721702,0.527141 0.111255,0.289927 0.361346,0.428833 0.555758,0.30868 0.217348,-0.134328 0.169147,-0.335256 -0.12516,-0.521738 -0.325521,-0.20626 -0.343178,-0.305007 -0.05519,-0.308681 0.232893,-0.003 0.550393,0.21895 0.705555,0.493158 0.470909,0.832207 5.257588,1.079126 6.03995,0.311568 z m 4.737301,-12.858698 c 0.851203,-1.005948 0.77286,-1.939114 -0.248547,-2.960522 -1.134234,-1.134233 -2.470376,-1.108885 -3.560658,0.06755 -1.356197,1.463361 -0.978045,3.046375 0.898789,3.762494 0.860078,0.328168 2.247784,-0.08642 2.910416,-0.869522 z m -6.030882,-6.209298 c 0.671641,-0.671641 -0.05582,-1.145042 -1.751048,-1.139508 -2.263925,0.0074 -2.939422,0.466675 -1.666948,1.133391 1.091396,0.57184 2.849127,0.574986 3.417996,0.0061 z"
         id="path77"
         inkscape:connector-curvature="0"
         sodipodi:nodetypes="sssssscsssccsccsssssccsssssscsscscccssscccscc" />
      <path
         style="fill:#b3e5ee;stroke-width:0.35277778"
         d="M 64.583521,58.958948 C 56.795807,57.614618 50.190405,51.155512 48.533683,43.264584 47.82746,39.900856 47.87373,37.356365 48.699859,34.126231 c 1.004513,-3.927609 2.590605,-6.703033 5.462678,-9.558871 3.88362,-3.861665 8.538207,-5.820833 13.829126,-5.820833 5.735266,0 10.158322,1.84873 14.261114,5.960802 4.414434,4.424418 6.18221,9.042329 5.887598,15.380019 -0.12948,2.785367 -0.373041,4.050935 -1.154606,5.999458 -3.758081,9.369288 -12.753168,14.537786 -22.402248,12.872142 z m 12.974282,-5.83659 c 0.9978,-0.698887 1.037238,-2.372642 0.07849,-3.331385 -1.146531,-1.146531 -2.645943,-1.061847 -3.792361,0.214186 -0.98166,1.092647 -0.992234,1.554999 -0.06259,2.73685 0.851669,1.08272 2.532053,1.251962 3.776456,0.380349 z m -21.68234,-9.033454 c 1.740787,-0.927148 2.055623,-2.156964 0.921342,-3.598968 -0.924761,-1.175643 -2.588686,-1.247848 -3.744019,-0.16247 -1.373885,1.290698 -0.902639,3.241319 0.947402,3.921567 0.817865,0.300724 1.046676,0.281186 1.875275,-0.160129 z m 16.089903,-0.271318 c 0.347115,-0.219684 0.548752,-1.227865 0.651559,-3.257793 0.12231,-2.415008 0.01071,-3.306014 -0.625306,-4.992411 -0.425803,-1.129017 -1.002306,-2.140295 -1.281118,-2.247286 -0.278812,-0.10699 -1.522969,0.305667 -2.764795,0.917016 -2.380614,1.171973 -5.478852,4.180148 -5.478852,5.319588 0,1.519368 4.815477,4.006353 8.819444,4.55486 0.09701,0.01329 0.402594,-0.118998 0.679068,-0.293974 z M 68.511341,32.801798 c 0.750115,-0.22474 1.363846,-0.534598 1.363846,-0.688573 0,-0.546445 -2.577961,-2.772924 -4.012042,-3.465036 -1.687976,-0.814647 -4.974947,-1.581562 -5.656908,-1.319869 -0.753026,0.288963 -0.917612,2.027715 -0.25877,2.733752 0.771014,0.826246 3.858822,2.356546 5.561874,2.756434 0.751979,0.17657 1.428192,0.336983 1.502695,0.356474 0.0745,0.01949 0.74919,-0.148442 1.499305,-0.373182 z m 7.093733,-4.168982 c 1.301344,-1.023638 1.414028,-1.966034 0.381768,-3.192806 -1.178954,-1.401107 -2.920049,-1.453532 -3.969384,-0.119519 -0.650877,0.827457 -0.73116,0.852828 -0.73116,0.231065 0,-0.924592 1.01632,-1.804821 2.404398,-2.082436 0.617859,-0.123572 1.12338,-0.352061 1.12338,-0.507752 0,-0.602446 -1.853454,-1.69651 -3.572824,-2.108981 -3.601839,-0.864068 -9.479954,0.431518 -9.479954,2.089461 0,1.897414 3.884141,3.697646 7.320139,3.392756 1.678877,-0.148974 1.852083,-0.0975 1.852083,0.550357 0,0.996801 1.673918,2.4449 2.826161,2.4449 0.527584,0 1.358011,-0.313671 1.845393,-0.697045 z"
         id="path75"
         inkscape:connector-curvature="0"
         sodipodi:nodetypes="sssssssssccssccsssssssscsscssssscscscssssssssssc" />
      <path
         style="fill:#cdd2d3;stroke-width:0.35277778"
         d="M 64.583521,58.958948 C 56.795807,57.614618 50.190405,51.155512 48.533683,43.264584 47.82746,39.900856 47.87373,37.356365 48.699859,34.126231 51.026835,25.027839 58.995264,18.746527 68.210445,18.746527 c 3.280328,0 7.533121,1.174843 10.311015,2.84844 4.299362,2.590237 7.829641,7.464494 9.179238,12.673783 0.894704,3.453459 0.584701,8.577944 -0.714929,11.818056 -3.758081,9.369288 -12.753168,14.537786 -22.402248,12.872142 z m 12.611804,-5.636331 c 1.780887,-1.085827 1.482455,-3.452338 -0.523547,-4.151635 -1.250322,-0.435864 -2.35671,-0.0232 -3.139067,1.170833 -0.553444,0.844662 -0.563541,1.036711 -0.0981,1.865957 0.436855,0.778312 1.807715,1.796147 2.437795,1.810015 0.09701,0.0021 0.692326,-0.310691 1.322916,-0.69517 z M 56.129263,43.963722 c 2.150523,-1.112078 1.424585,-4.095731 -1.056028,-4.340341 -2.458863,-0.242466 -3.794685,2.660239 -1.907416,4.144765 1.108873,0.87224 1.59312,0.904198 2.963444,0.195576 z m 16.266026,-0.787333 c 1.136606,-2.856849 -0.241638,-9.975229 -1.928088,-9.958225 -1.940533,0.01957 -5.827647,2.728074 -7.710942,5.372919 l -0.72254,1.014713 0.833929,0.892826 c 1.200855,1.285667 3.381461,2.484857 5.604981,3.082371 2.894873,0.777923 3.476037,0.717979 3.92266,-0.404604 z m -5.028027,-9.696758 c 1.045989,-0.536123 2.117551,-0.97477 2.38125,-0.97477 0.815341,0 0.53702,-0.571447 -0.918992,-1.886867 -1.991508,-1.799207 -4.621113,-3.028302 -7.014051,-3.278414 -1.958925,-0.204748 -2.076695,-0.172721 -2.289566,0.622632 -0.123428,0.461165 -0.226582,1.802041 -0.229232,2.979725 -0.0043,1.897546 0.105595,2.23806 0.965322,2.991926 0.533576,0.467875 1.168576,0.807045 1.411111,0.753709 0.242535,-0.05334 0.440972,0.08572 0.440972,0.309012 0,0.223292 0.233041,0.316559 0.517869,0.207261 0.284828,-0.109299 0.617028,-0.03828 0.738223,0.157814 0.13694,0.221574 0.575226,0.117339 1.157825,-0.275359 0.51561,-0.347544 1.793281,-1.070545 2.839269,-1.606669 z m 8.697571,-5.015679 c 1.097063,-1.097063 1.088487,-1.637662 -0.04739,-2.98758 -1.209932,-1.437923 -2.938537,-1.505287 -3.99998,-0.155881 -0.650877,0.827457 -0.73116,0.852828 -0.73116,0.231065 0,-1.586243 2.589472,-2.683716 4.059514,-1.720508 1.131515,0.741398 1.128841,0.226574 -0.0052,-0.997054 -1.541214,-1.662998 -3.875773,-2.488752 -7.052946,-2.494692 -7.118113,-0.0133 -10.69983,4.654796 -4.871527,6.34913 1.115439,0.324267 2.652038,0.907901 3.414665,1.296964 1.037603,0.529346 1.812333,0.661619 3.078114,0.525542 1.208802,-0.129952 1.810031,-0.03905 2.106802,0.318538 0.697248,0.840133 3.056404,0.627164 4.049092,-0.365524 z"
         id="path73"
         inkscape:connector-curvature="0"
         sodipodi:nodetypes="sssssssscscccccssssscscssscsssscscsccscccsssccsssscc" />
      <path
         style="fill:#a4dbea;stroke-width:0.35277778"
         d="M 62.859258,58.405612 C 56.509167,56.697861 51.028557,51.277503 48.976714,44.675695 c -0.985897,-3.172128 -1.043329,-8.209402 -0.128709,-11.28889 2.035406,-6.853129 7.670227,-12.305699 14.551715,-14.08106 4.726212,-1.21932 10.832506,-0.294911 15.12174,2.289222 4.329177,2.608199 7.962507,7.647262 9.151661,12.69244 2.472429,10.489656 -4.08602,21.433224 -14.464996,24.136606 -2.581482,0.672391 -7.814838,0.663085 -10.348867,-0.01842 z m 14.833506,-5.33094 c 1.249868,-1.095712 1.068138,-3.131792 -0.378673,-4.242619 -0.927275,-0.711939 -2.458808,-0.525469 -3.397995,0.413718 -2.523693,2.523693 1.088328,6.185667 3.776668,3.828901 z m -20.78216,-9.673844 c 1.876213,-2.259788 -1.016367,-5.636993 -3.457899,-4.037239 -1.777207,1.164471 -1.821163,3.353732 -0.09215,4.589327 1.02425,0.731951 2.700376,0.471287 3.550044,-0.552088 z m 15.484685,-0.224439 c 1.136606,-2.856849 -0.241638,-9.975229 -1.928088,-9.958225 -1.940533,0.01957 -5.827647,2.728074 -7.710942,5.372919 l -0.72254,1.014713 0.833929,0.892826 c 1.200855,1.285667 3.381461,2.484857 5.604981,3.082371 2.894873,0.777923 3.476037,0.717979 3.92266,-0.404604 z m -5.028027,-9.696758 c 1.045989,-0.536123 2.117551,-0.97477 2.38125,-0.97477 0.815341,0 0.53702,-0.571447 -0.918992,-1.886867 -1.991508,-1.799207 -4.621113,-3.028302 -7.014051,-3.278414 -1.958925,-0.204748 -2.076695,-0.172721 -2.289566,0.622632 -0.123428,0.461165 -0.226582,1.802041 -0.229232,2.979725 -0.0043,1.897546 0.105595,2.23806 0.965322,2.991926 0.533576,0.467875 1.168576,0.807045 1.411111,0.753709 0.242535,-0.05334 0.440972,0.08572 0.440972,0.309012 0,0.223292 0.233041,0.316559 0.517869,0.207261 0.284828,-0.109299 0.617028,-0.03828 0.738223,0.157814 0.13694,0.221574 0.575226,0.117339 1.157825,-0.275359 0.51561,-0.347544 1.793281,-1.070545 2.839269,-1.606669 z m 8.739524,-5.057632 c 0.745527,-0.745528 0.871776,-1.130227 0.706055,-2.15145 -0.38679,-2.383509 -1.390728,-3.746413 -3.593352,-4.878189 -1.787295,-0.918366 -2.436237,-1.058333 -4.906859,-1.058333 -7.14702,0 -10.735497,4.656954 -4.89647,6.354405 1.115439,0.324267 2.652038,0.907901 3.414665,1.296964 1.037603,0.529346 1.812333,0.661619 3.078114,0.525542 1.208802,-0.129952 1.810031,-0.03905 2.106802,0.318538 0.713162,0.859308 3.05779,0.625777 4.091045,-0.407477 z"
         id="path71"
         inkscape:connector-curvature="0"
         sodipodi:nodetypes="cssssssccsssscscccscscssscsssscscsccsccsssssssc" />
      <path
         style="fill:#8fd7e6;stroke-width:0.35277778"
         d="M 62.859258,58.405612 C 56.637319,56.732324 51.030245,51.272926 49.077951,44.98727 46.151755,35.566015 50.486739,25.275034 59.232208,20.881696 c 2.218386,-1.114419 6.546255,-2.135968 9.023716,-2.129955 9.026042,0.02191 17.351849,6.751691 19.464657,15.73336 0.71713,3.048569 0.503092,7.511148 -0.514153,10.71976 -1.966584,6.203045 -7.643432,11.563919 -13.998303,13.219152 -2.581482,0.672391 -7.814838,0.663085 -10.348867,-0.01842 z M 77.372689,53.32433 c 2.134049,-1.678643 1.085462,-4.902646 -1.60451,-4.933249 -2.002875,-0.02279 -3.459117,2.707249 -2.265801,4.247723 1.123775,1.450703 2.571545,1.707137 3.870311,0.685526 z M 56.662056,43.633397 c 2.23953,-2.23953 -0.580965,-5.991993 -3.209351,-4.269808 -1.772644,1.161481 -1.821769,3.366268 -0.101844,4.57095 1.149159,0.804903 2.310797,0.699256 3.311195,-0.301142 z m 15.92912,-0.809786 c 0.777195,-3.691588 -0.534034,-9.621478 -2.123975,-9.605447 -2.026573,0.02043 -5.89367,2.610639 -7.482857,5.012062 l -0.926971,1.400748 0.822101,0.880237 c 1.760278,1.884756 5.599077,3.554567 8.302644,3.611507 1.028064,0.02165 1.155789,-0.09611 1.409058,-1.299107 z m -6.243767,-8.811346 c 0.679098,-0.393954 1.830035,-0.906594 2.557639,-1.1392 0.727604,-0.232607 1.322917,-0.554649 1.322917,-0.715649 0,-0.161 -0.801429,-1.013281 -1.780952,-1.893957 -2.030649,-1.825728 -4.929697,-3.050265 -7.221394,-3.050265 -1.409093,0 -1.594969,0.09806 -1.838849,0.970139 -0.747579,2.673216 0.09309,7.634741 1.556598,9.186902 0.629906,0.66806 0.673533,0.650274 2.40543,-0.980645 0.970139,-0.913575 2.319514,-1.983371 2.998611,-2.377325 z m 8.554861,0.258392 c 0.533576,-0.257366 0.970139,-0.586309 0.970139,-0.730985 0,-0.308585 -3.487177,-0.840226 -3.754941,-0.572463 -0.299846,0.299846 0.935298,1.946058 1.392046,1.855331 0.232439,-0.04617 0.85918,-0.294518 1.392756,-0.551883 z m -2.759584,-4.372621 c 0.305098,0.117076 0.554723,0.06888 0.554723,-0.107099 0,-0.175981 0.551284,-0.319965 1.225077,-0.319965 1.931877,0 3.008256,-1.243563 3.008256,-3.475499 0,-2.078019 -0.551765,-3.041321 -2.411553,-4.210224 -3.522774,-2.214114 -7.440882,-2.494722 -11.042569,-0.790852 -2.437474,1.153111 -3.529183,2.301043 -3.600268,3.785683 -0.04997,1.043626 0.06432,1.185295 1.179391,1.461881 3.512175,0.871175 4.997097,1.436745 7.072437,2.693716 1.660814,1.005904 2.436167,1.293569 2.867979,1.06405 0.325493,-0.173007 0.84143,-0.218768 1.146527,-0.101691 z"
         id="path69"
         inkscape:connector-curvature="0"
         sodipodi:nodetypes="cssssssccscssssssscscscsscsssccsscsccccsssssssscc" />
      <path
         style="fill:#76d1e3;stroke-width:0.35277778"
         d="M 62.859258,58.405612 C 53.090714,55.778522 46.527018,45.246514 48.474697,35.32436 c 1.617684,-8.24105 7.561751,-14.343533 15.637939,-16.054708 3.109534,-0.658845 4.816348,-0.65129 8.158673,0.03611 7.491758,1.540798 13.668636,7.609752 15.449272,15.179337 0.71713,3.048569 0.503092,7.511148 -0.514153,10.71976 -1.966584,6.203045 -7.643432,11.563919 -13.998303,13.219152 -2.581482,0.672391 -7.814838,0.663085 -10.348867,-0.01842 z M 77.372689,53.32433 c 2.134049,-1.678643 1.085462,-4.902646 -1.60451,-4.933249 -2.002875,-0.02279 -3.459117,2.707249 -2.265801,4.247723 1.123775,1.450703 2.571545,1.707137 3.870311,0.685526 z M 56.662056,43.633397 c 2.23953,-2.23953 -0.580965,-5.991993 -3.209351,-4.269808 -1.772644,1.161481 -1.821769,3.366268 -0.101844,4.57095 1.149159,0.804903 2.310797,0.699256 3.311195,-0.301142 z m 16.00612,-1.268122 c 0.210106,-0.979689 0.380127,-2.210002 0.377824,-2.734028 -0.0056,-1.272935 -0.805866,-4.213101 -1.525159,-5.603372 -0.515417,-0.996215 -0.691803,-1.091019 -1.564304,-0.84079 -2.771687,0.79491 -5.811822,2.99458 -7.165136,5.184288 l -0.760839,1.231062 0.835507,0.903145 c 1.832914,1.981295 5.390353,3.564409 8.126413,3.616376 1.273562,0.02419 1.299626,-0.0031 1.675694,-1.756681 z m -9.324777,-5.813463 c 1.704013,-1.745357 3.012467,-2.537018 6.458866,-3.907846 0.796999,-0.317011 0.786513,-0.344772 -0.705555,-1.867879 -2.154842,-2.199669 -5.331281,-3.632366 -7.746908,-3.494157 l -1.881559,0.107653 -0.328265,2.072067 c -0.224461,1.416837 -0.199356,2.686641 0.07939,4.015568 0.379795,1.810683 1.697253,5.024865 2.059637,5.024865 0.08818,0 1.017154,-0.877622 2.064394,-1.950271 z m 12.771078,0.203941 c 0.618207,-0.376948 1.29848,-1.011354 1.511718,-1.409792 0.213237,-0.398439 0.659932,-0.73781 0.992654,-0.754159 0.332722,-0.01635 -0.09593,-0.351278 -0.952564,-0.744287 -1.48632,-0.681899 -5.674431,-1.325436 -5.674431,-0.871922 0,0.118772 0.306738,0.894883 0.681641,1.724692 0.374903,0.829808 0.766796,1.786555 0.870873,2.126104 0.247087,0.806117 1.173984,0.780642 2.570109,-0.07064 z m -2.177122,-5.697321 c 4.803932,-2.531572 5.316947,-6.275717 1.258122,-9.182177 -2.348858,-1.681981 -4.020927,-2.166939 -7.382401,-2.141154 -2.026605,0.01555 -2.98754,0.213768 -4.409722,0.909637 -2.231964,1.092093 -4.378303,3.227453 -4.659357,4.635525 -0.207665,1.040391 -0.192624,1.051983 1.491955,1.149883 3.547241,0.206148 7.090545,1.698419 9.791513,4.12372 1.615004,1.450173 2.017045,1.502056 3.90989,0.504566 z"
         id="path67"
         inkscape:connector-curvature="0"
         sodipodi:nodetypes="cssssssccscssssssccscscsscsssscsssscccssssccsscsssss" />
      <path
         style="fill:#96bcc3;stroke-width:0.35277778"
         d="M 62.859258,58.405612 C 53.090714,55.778522 46.527018,45.246514 48.474697,35.32436 c 1.617684,-8.24105 7.561751,-14.343533 15.637939,-16.054708 3.109534,-0.658845 4.816348,-0.65129 8.158673,0.03611 7.491758,1.540798 13.668636,7.609752 15.449272,15.179337 0.71713,3.048569 0.503092,7.511148 -0.514153,10.71976 -1.966584,6.203045 -7.643432,11.563919 -13.998303,13.219152 -2.581482,0.672391 -7.814838,0.663085 -10.348867,-0.01842 z M 77.372689,53.32433 c 2.134049,-1.678643 1.085462,-4.902646 -1.60451,-4.933249 -2.002875,-0.02279 -3.459117,2.707249 -2.265801,4.247723 1.123775,1.450703 2.571545,1.707137 3.870311,0.685526 z M 56.662056,43.633397 c 2.23953,-2.23953 -0.580965,-5.991993 -3.209351,-4.269808 -1.772644,1.161481 -1.821769,3.366268 -0.101844,4.57095 1.149159,0.804903 2.310797,0.699256 3.311195,-0.301142 z m 15.842324,-0.09988 c 0.129379,-0.337158 0.325228,-1.576719 0.435218,-2.75458 0.376897,-4.036101 -1.754429,-8.727143 -5.143613,-11.321078 -0.85252,-0.652481 -1.432651,-1.18633 -1.289181,-1.18633 0.420614,0 2.382827,1.423891 3.775528,2.739735 1.259866,1.190339 1.337003,1.212388 3.402661,0.972643 1.651604,-0.191689 2.302586,-0.450717 2.978336,-1.185092 2.172101,-2.360541 2.544304,-3.985417 1.444041,-6.304049 -0.831254,-1.751739 -3.583736,-3.811999 -5.832505,-4.36569 -2.371079,-0.583805 -6.389041,-0.574608 -8.220511,0.01882 -3.603165,1.16748 -6.529734,4.669828 -5.973393,7.14861 l 0.258425,1.151416 0.329244,-0.970139 c 0.293578,-0.86505 0.488468,-0.964023 1.79915,-0.913681 1.284049,0.04932 1.326282,0.07435 0.334009,0.197947 -0.964131,0.120095 -1.190555,0.338279 -1.497338,1.442848 -0.792182,2.852239 -0.199139,6.926423 1.381946,9.493926 l 0.700179,1.137012 1.862336,-1.969146 c 1.024285,-1.08303 2.611445,-2.348748 3.527022,-2.812706 2.206704,-1.118222 2.636537,-1.073061 0.629809,0.06617 -2.907316,1.650501 -5.548946,4.712103 -5.092358,5.901952 0.310751,0.809804 3.191458,2.716395 5.192491,3.436639 2.412572,0.868372 4.680951,0.902306 4.998504,0.07478 z M 62.400708,26.972206 c 0.254662,-0.101907 0.558932,-0.08937 0.676158,0.02785 0.117225,0.117225 -0.09114,0.200604 -0.463021,0.185286 -0.410966,-0.01693 -0.494559,-0.100521 -0.213137,-0.213136 z m 14.504363,11.960088 c 2.226343,-1.525801 3.390873,-2.95349 3.076763,-3.772047 -0.550192,-1.433778 -7.98998,-3.19577 -7.98998,-1.892296 0,0.2788 0.137649,0.657722 0.305888,0.842049 0.479679,0.525548 1.458,3.712075 1.458,4.748908 0,1.811722 0.592716,1.825533 3.149329,0.07339 z"
         id="path65"
         inkscape:connector-curvature="0"
         sodipodi:nodetypes="csssszsccscsssssscsssssssscsccscsscssssscccccccsssscc" />
      <path
         style="fill:#6ccadc;stroke-width:0.35277778"
         d="M 63.172409,58.406184 C 54.377799,56.091909 48.355744,48.239922 48.355744,39.087157 c 0,-5.58885 1.678378,-9.992849 5.242341,-13.755696 4.030104,-4.255 8.79118,-6.337098 14.513213,-6.34687 5.704037,-0.0097 10.297208,1.899051 14.268765,5.929697 3.828505,3.885467 5.619759,8.322205 5.628254,13.940573 0.01388,9.178715 -6.136486,17.312542 -14.796401,19.568165 -2.571331,0.669745 -7.461539,0.661543 -10.039507,-0.01684 z m 14.657122,-5.315336 c 1.124455,-1.213306 1.124138,-2.72013 -8.09e-4,-3.845077 -1.785075,-1.785076 -4.778535,-0.621494 -4.778535,1.857454 0,2.607324 3.035194,3.869591 4.779344,1.987623 z M 56.598446,43.768146 c 0.697745,-0.548847 0.929519,-1.048975 0.929519,-2.005736 0,-3.648624 -4.942994,-3.985121 -5.520737,-0.375827 -0.406096,2.536975 2.486276,4.03731 4.591218,2.381563 z M 72.50438,43.533515 c 0.129379,-0.337158 0.325228,-1.576719 0.435218,-2.75458 0.376897,-4.036101 -1.754429,-8.727143 -5.143613,-11.321078 -0.85252,-0.652481 -1.432651,-1.18633 -1.289181,-1.18633 0.420614,0 2.382827,1.423891 3.775528,2.739735 1.259866,1.190339 1.337003,1.212388 3.402661,0.972643 1.651604,-0.191689 2.302586,-0.450717 2.978336,-1.185092 2.172101,-2.360541 2.544304,-3.985417 1.444041,-6.304049 -0.831254,-1.751739 -3.583736,-3.811999 -5.832505,-4.36569 -2.371079,-0.583805 -6.389041,-0.574608 -8.220511,0.01882 -3.603165,1.16748 -6.529734,4.669828 -5.973393,7.14861 l 0.258425,1.151416 0.329244,-0.970139 c 0.293578,-0.86505 0.488468,-0.964023 1.79915,-0.913681 1.284049,0.04932 1.326282,0.07435 0.334009,0.197947 -0.964131,0.120095 -1.190555,0.338279 -1.497338,1.442848 -0.792182,2.852239 -0.199139,6.926423 1.381946,9.493926 l 0.700179,1.137012 1.862336,-1.969146 c 1.024285,-1.08303 2.611445,-2.348748 3.527022,-2.812706 2.206704,-1.118222 2.636537,-1.073061 0.629809,0.06617 -2.907316,1.650501 -5.548946,4.712103 -5.092358,5.901952 0.310751,0.809804 3.191458,2.716395 5.192491,3.436639 2.412572,0.868372 4.680951,0.902306 4.998504,0.07478 z M 62.400708,26.972206 c 0.254662,-0.101907 0.558932,-0.08937 0.676158,0.02785 0.117225,0.117225 -0.09114,0.200604 -0.463021,0.185286 -0.410966,-0.01693 -0.494559,-0.100521 -0.213137,-0.213136 z m 14.504363,11.960088 c 2.226343,-1.525801 3.390873,-2.95349 3.076763,-3.772047 -0.550192,-1.433778 -7.98998,-3.19577 -7.98998,-1.892296 0,0.2788 0.137649,0.657722 0.305888,0.842049 0.479679,0.525548 1.458,3.712075 1.458,4.748908 0,1.811722 0.592716,1.825533 3.149329,0.07339 z"
         id="path63"
         inkscape:connector-curvature="0"
         sodipodi:nodetypes="csscsssccsssssssscsssssssscsccscsscssssscccccccsssscc" />
      <path
         style="fill:#96aeb1;stroke-width:0.35277778"
         d="M 63.172409,58.406184 C 54.377799,56.091909 48.355744,48.239922 48.355744,39.087157 c 0,-5.585438 1.616613,-9.792378 5.291666,-13.770594 3.871036,-4.190366 8.696085,-6.299959 14.463888,-6.323856 5.694072,-0.02359 10.290187,1.88381 14.268765,5.921581 3.828505,3.885467 5.619759,8.322205 5.628254,13.940573 0.01388,9.178715 -6.136486,17.312542 -14.796401,19.568165 -2.571331,0.669745 -7.461539,0.661543 -10.039507,-0.01684 z m 14.657122,-5.315336 c 1.124455,-1.213306 1.124138,-2.72013 -8.09e-4,-3.845077 -1.785075,-1.785076 -4.778535,-0.621494 -4.778535,1.857454 0,2.607324 3.035194,3.869591 4.779344,1.987623 z M 56.598446,43.768146 c 0.697745,-0.548847 0.929519,-1.048975 0.929519,-2.005736 0,-3.648624 -4.942994,-3.985121 -5.520737,-0.375827 -0.406096,2.536975 2.486276,4.03731 4.591218,2.381563 z M 72.67886,42.823611 c 1.207114,-4.346613 -0.703695,-9.953331 -4.483363,-13.155133 -0.725407,-0.614501 -0.963592,-0.937485 -0.529301,-0.717744 0.434291,0.219742 1.452317,1.029939 2.262281,1.800439 1.460917,1.389737 1.494846,1.40091 4.254308,1.40091 2.580135,0 2.847151,-0.07028 3.685858,-0.970139 3.237024,-3.473039 1.282233,-8.650108 -4.041678,-10.703982 -1.494462,-0.576537 -2.827607,-0.785447 -5.1865,-0.812746 -4.408749,-0.05102 -6.472396,0.548086 -8.658689,2.513752 -2.527562,2.272495 -3.454694,4.927946 -2.405217,6.888913 0.375526,0.701677 0.438512,0.64907 0.978143,-0.816942 0.493384,-1.340375 0.728623,-1.576916 1.6271,-1.636104 0.96734,-0.06373 0.981662,-0.04877 0.181253,0.189256 -1.047577,0.311532 -1.341914,1.224831 -1.388814,4.309353 -0.0357,2.348219 0.885853,5.820787 1.902741,7.169818 0.471664,0.625723 0.603383,0.549849 2.335405,-1.345259 1.009551,-1.10461 2.598902,-2.395203 3.531891,-2.867985 2.344381,-1.187987 2.633604,-1.073596 0.45089,0.178333 -2.033644,1.166427 -5.081092,4.357509 -5.081092,5.320576 0,0.632392 1.831745,2.282019 3.527778,3.177034 1.483336,0.782772 3.628153,1.352159 5.18689,1.376968 1.419529,0.02259 1.498382,-0.03278 1.850116,-1.299318 z M 62.819632,41.853472 C 61.857557,40.829391 61.307384,40.715 61.4727,41.573421 c 0.09565,0.496668 0.645671,0.802614 2.025787,1.126831 0.08233,0.01934 -0.223156,-0.36171 -0.678855,-0.84678 z M 75.631408,41.70478 c 1.819371,-0.779874 5.532667,-4.31846 5.532667,-5.272357 0,-1.525855 -3.477572,-3.272677 -6.969135,-3.500671 l -2.559413,-0.167127 0.94676,2.067997 c 0.681417,1.48841 0.99123,2.836203 1.105434,4.809007 0.08727,1.507555 0.204492,2.74101 0.26049,2.74101 0.056,0 0.813437,-0.305037 1.683197,-0.677859 z"
         id="path61"
         inkscape:connector-curvature="0"
         sodipodi:nodetypes="csssszsccsssssssssscsssssssscccsssssacsccccssscssss" />
      <path
         style="fill:#50c5d6;stroke-width:0.35277778"
         d="M 63.951564,58.425158 C 56.755617,56.8626 51.097519,51.495493 48.924253,44.170688 c -0.726907,-2.449977 -0.741135,-7.679841 -0.02834,-10.416451 0.760727,-2.920626 2.487357,-5.986767 4.751496,-8.437679 3.871036,-4.190366 8.696085,-6.299959 14.463888,-6.323856 5.694072,-0.02359 10.290187,1.88381 14.268765,5.921581 3.832922,3.889947 5.623188,8.328238 5.623188,13.940573 0,5.702449 -1.82306,10.144596 -5.806883,14.149318 -4.769909,4.794927 -11.676895,6.847166 -18.244803,5.420984 z m 13.877967,-5.334315 c 1.756494,-1.895288 0.571443,-4.710986 -1.982727,-4.710986 -1.787571,0 -2.796617,0.960427 -2.796617,2.661869 0,2.66734 3.010273,3.957978 4.779344,2.049117 z M 56.598446,43.768146 c 0.697745,-0.548847 0.929519,-1.048975 0.929519,-2.005736 0,-3.648624 -4.942994,-3.985121 -5.520737,-0.375827 -0.406096,2.536975 2.486276,4.03731 4.591218,2.381563 z M 72.67886,42.823611 c 1.207114,-4.346613 -0.703695,-9.953331 -4.483363,-13.155133 -0.725407,-0.614501 -0.963592,-0.937485 -0.529301,-0.717744 0.434291,0.219742 1.452317,1.029939 2.262281,1.800439 1.460917,1.389737 1.494846,1.40091 4.254308,1.40091 2.580135,0 2.847151,-0.07028 3.685858,-0.970139 3.237024,-3.473039 1.282233,-8.650108 -4.041678,-10.703982 -1.494462,-0.576537 -2.827607,-0.785447 -5.1865,-0.812746 -4.408749,-0.05102 -6.472396,0.548086 -8.658689,2.513752 -2.527562,2.272495 -3.454694,4.927946 -2.405217,6.888913 0.375526,0.701677 0.438512,0.64907 0.978143,-0.816942 0.493384,-1.340375 0.728623,-1.576916 1.6271,-1.636104 0.96734,-0.06373 0.981662,-0.04877 0.181253,0.189256 -1.047577,0.311532 -1.341914,1.224831 -1.388814,4.309353 -0.0357,2.348219 0.885853,5.820787 1.902741,7.169818 0.471664,0.625723 0.603383,0.549849 2.335405,-1.345259 1.009551,-1.10461 2.598902,-2.395203 3.531891,-2.867985 2.344381,-1.187987 2.633604,-1.073596 0.45089,0.178333 -2.033644,1.166427 -5.081092,4.357509 -5.081092,5.320576 0,0.632392 1.831745,2.282019 3.527778,3.177034 1.483336,0.782772 3.628153,1.352159 5.18689,1.376968 1.419529,0.02259 1.498382,-0.03278 1.850116,-1.299318 z M 62.819632,41.853472 C 61.857557,40.829391 61.307384,40.715 61.4727,41.573421 c 0.09565,0.496668 0.645671,0.802614 2.025787,1.126831 0.08233,0.01934 -0.223156,-0.36171 -0.678855,-0.84678 z M 75.631408,41.70478 c 1.819371,-0.779874 5.532667,-4.31846 5.532667,-5.272357 0,-1.525855 -3.477572,-3.272677 -6.969135,-3.500671 l -2.559413,-0.167127 0.94676,2.067997 c 0.681417,1.48841 0.99123,2.836203 1.105434,4.809007 0.08727,1.507555 0.204492,2.74101 0.26049,2.74101 0.056,0 0.813437,-0.305037 1.683197,-0.677859 z"
         id="path59"
         inkscape:connector-curvature="0"
         sodipodi:nodetypes="ssssssssssssssssssscsssssssscccsssssccsccccssscssss" />
      <path
         style="fill:#50bbd1;stroke-width:0.35277778"
         d="M 63.951564,58.42516 C 56.755617,56.862602 51.097519,51.495495 48.924253,44.17069 c -0.726907,-2.449977 -0.741135,-7.679841 -0.02834,-10.416451 0.760727,-2.920626 2.487357,-5.986767 4.751496,-8.437679 3.871036,-4.190366 8.696085,-6.299959 14.463888,-6.323856 5.694072,-0.02359 10.290187,1.88381 14.268765,5.921581 3.832922,3.889947 5.623188,8.328238 5.623188,13.940573 0,5.702449 -1.82306,10.144596 -5.806883,14.149318 -4.769909,4.794927 -11.676895,6.847166 -18.244803,5.420984 z m 13.877967,-5.334315 c 1.756494,-1.895288 0.571443,-4.710986 -1.982727,-4.710986 -1.787571,0 -2.796617,0.960427 -2.796617,2.661869 0,2.66734 3.010273,3.957978 4.779344,2.049117 z M 70.492548,44.96168 c -0.339549,-0.08873 -0.895174,-0.08873 -1.234722,0 -0.339549,0.08873 -0.06174,0.161333 0.617361,0.161333 0.679097,0 0.95691,-0.0726 0.617361,-0.161333 z m -2.38125,-0.357091 c -1.728281,-0.626395 -4.212553,-2.067798 -5.198187,-3.016047 -0.627684,-0.603877 -1.236344,-1.002856 -1.352578,-0.886622 -0.116234,0.116234 -0.297752,0.855623 -0.403373,1.643086 -0.173607,1.294334 -0.104973,1.464852 0.715097,1.776643 0.498925,0.18969 1.207532,0.287041 1.574683,0.216334 0.367152,-0.07071 0.892143,0.01361 1.166648,0.187368 0.274504,0.173759 1.292849,0.305824 2.262988,0.293477 0.970139,-0.01235 1.525764,-0.108755 1.234722,-0.214239 z M 56.598446,43.768146 c 0.697745,-0.548847 0.929519,-1.048975 0.929519,-2.005736 0,-3.648624 -4.942994,-3.985121 -5.520737,-0.375827 -0.406096,2.536975 2.486276,4.03731 4.591218,2.381563 z m 16.137656,-0.679951 c 0.577896,-2.09092 0.311473,-5.786446 -0.572142,-7.936137 -0.478214,-1.163417 -1.03007,-2.168833 -1.226349,-2.23426 -0.196277,-0.06542 -0.356869,-0.291664 -0.356869,-0.502752 0,-0.211088 -0.277812,-0.709527 -0.617361,-1.107642 -0.339548,-0.398116 -0.0433,-0.251866 0.658324,0.325 0.701626,0.576865 1.263881,1.128221 1.249455,1.225235 -0.01443,0.09701 0.354324,1.128889 0.819443,2.293055 0.682343,1.707866 0.844051,2.746902 0.837285,5.379862 -0.0095,3.707932 -0.09036,3.636333 2.859275,2.532733 2.216952,-0.829468 5.721155,-3.807416 6.057588,-5.147867 0.379312,-1.511302 -2.599201,-3.892061 -6.140525,-4.908189 l -1.666539,-0.478188 2.116666,0.0761 2.116667,0.0761 0.80845,-1.5875 c 1.457644,-2.862281 0.841446,-5.600617 -1.870563,-8.312625 -3.337948,-3.337949 -11.045329,-4.23739 -16.329981,-1.905687 -3.007394,1.326928 -5.142024,4.324072 -5.142024,7.2197 0,1.747483 0.884007,4.056945 1.5529,4.056945 0.189046,0 0.344604,-0.515938 0.345686,-1.146528 0.0024,-1.419827 0.613822,-3.695242 1.068362,-3.976164 0.209323,-0.129369 0.204335,0.143977 -0.01306,0.715775 -0.617061,1.622991 -0.421154,5.962739 0.361575,8.009656 0.392307,1.025924 0.948473,2.174211 1.235924,2.551749 0.501219,0.658299 0.593205,0.607694 2.244399,-1.234722 0.946968,-1.056635 2.256114,-2.22245 2.909214,-2.5907 0.897373,-0.505984 0.670377,-0.192758 -0.929213,1.282199 -1.164166,1.073459 -2.393992,2.430299 -2.732946,3.0152 l -0.616279,1.063456 1.243449,1.091763 c 2.407086,2.113449 5.118185,3.20063 7.735884,3.102175 1.540217,-0.05793 1.778718,-0.171328 1.993307,-0.947747 z M 73.31477,32.271223 c 0.242535,-0.09786 0.63941,-0.09786 0.881945,0 0.242534,0.09786 0.0441,0.177936 -0.440973,0.177936 -0.485069,0 -0.683507,-0.08007 -0.440972,-0.177936 z"
         id="path57"
         inkscape:connector-curvature="0"
         sodipodi:nodetypes="ssssssssssssscssccssscccccsssscscscccscscscccssssscscscsssscssccccsc" />
      <path
         style="fill:#2acbdd;stroke-width:0.35277778"
         d="m 63.951564,58.425163 c -7.195947,-1.562558 -12.854045,-6.929665 -15.027311,-14.25447 -0.726907,-2.449977 -0.741135,-7.679841 -0.02834,-10.416451 0.760727,-2.920626 2.487357,-5.986767 4.751496,-8.437679 3.871036,-4.190366 8.696085,-6.299959 14.463888,-6.323856 5.694072,-0.02359 10.290187,1.88381 14.268765,5.921581 3.832922,3.889947 5.623188,8.328238 5.623188,13.940573 0,5.702449 -1.82306,10.144596 -5.806883,14.149318 -4.769909,4.794927 -11.676895,6.847166 -18.244803,5.420984 z m 13.877967,-5.334315 c 1.756494,-1.895288 0.571443,-4.710986 -1.982727,-4.710986 -1.787571,0 -2.796617,0.960427 -2.796617,2.661869 0,2.66734 3.010273,3.957978 4.779344,2.049117 z m -6.485938,-7.295341 c 0.330042,-0.589751 0.08244,-0.708503 -2.330867,-1.117884 -1.856115,-0.314862 -4.688164,-1.759408 -6.120287,-3.121782 -0.969125,-0.921925 -1.217,-1.0182 -1.493904,-0.580236 -0.182593,0.288799 -0.336587,0.84259 -0.342207,1.230645 -0.0056,0.388056 -0.102797,1.050718 -0.215948,1.472583 -0.263284,0.981614 0.929344,1.634665 4.297491,2.353189 2.963884,0.632284 5.779573,0.524971 6.205722,-0.236515 z M 56.598446,43.768146 c 0.697745,-0.548847 0.929519,-1.048975 0.929519,-2.005736 0,-3.648624 -4.942994,-3.985121 -5.520737,-0.375827 -0.406096,2.536975 2.486276,4.03731 4.591218,2.381563 z m 16.137656,-0.679951 c 0.577896,-2.09092 0.311473,-5.786446 -0.572142,-7.936137 -0.478214,-1.163417 -1.03007,-2.168833 -1.226349,-2.23426 -0.196277,-0.06542 -0.356869,-0.291664 -0.356869,-0.502752 0,-0.211088 -0.277812,-0.709527 -0.617361,-1.107642 -0.339548,-0.398116 -0.0433,-0.251866 0.658324,0.325 0.701626,0.576865 1.263881,1.128221 1.249455,1.225235 -0.01443,0.09701 0.354324,1.128889 0.819443,2.293055 0.682343,1.707866 0.844051,2.746902 0.837285,5.379862 -0.008,3.118148 0.02572,3.263194 0.758943,3.263194 2.304524,0 8.288355,-4.547127 8.288355,-6.298342 0,-1.305037 -3.20348,-3.583887 -6.349999,-4.517181 l -1.5875,-0.470871 1.763889,0.15009 c 0.970138,0.08255 2.008776,0.245088 2.308084,0.361197 0.404304,0.15684 0.69948,-0.222133 1.148273,-1.474254 0.879613,-2.454102 0.777738,-4.853505 -0.29602,-6.971965 -0.993197,-1.959519 -2.127257,-2.835822 -5.277004,-4.077607 -2.977367,-1.173823 -9.295544,-1.214537 -12.120579,-0.0781 -3.037806,1.222026 -4.175825,2.186711 -5.156557,4.371149 -1.307658,2.912618 -1.102951,5.627066 0.591221,7.839684 0.453347,0.59208 0.50676,0.495034 0.582486,-1.058333 0.09939,-2.038843 0.643034,-4.243576 1.118894,-4.537675 0.215827,-0.133388 0.212288,0.130054 -0.0096,0.713627 -0.950819,2.500843 -0.08357,8.37134 1.56618,10.601631 0.48321,0.653249 0.585872,0.595997 2.251885,-1.255825 0.960077,-1.067153 2.279948,-2.241573 2.933048,-2.609823 0.897373,-0.505984 0.670377,-0.192758 -0.929213,1.282199 -1.164167,1.073459 -2.393992,2.430299 -2.732946,3.0152 l -0.616279,1.063456 1.243449,1.091763 c 2.407086,2.113449 5.118185,3.20063 7.735884,3.102175 1.540217,-0.05793 1.778718,-0.171328 1.993307,-0.947747 z M 73.31477,32.271223 c 0.242535,-0.09786 0.63941,-0.09786 0.881945,0 0.242534,0.09786 0.0441,0.177936 -0.440973,0.177936 -0.485069,0 -0.683507,-0.08007 -0.440972,-0.177936 z"
         id="path55"
         inkscape:connector-curvature="0"
         sodipodi:nodetypes="ssssssssssssssssccssssssscscscccscssscsssssssscccssssscssccccsc" />
      <path
         style="fill:#68acb9;stroke-width:0.35277778"
         d="m 63.951564,58.425163 c -7.195947,-1.562558 -12.854045,-6.929665 -15.027311,-14.25447 -0.726907,-2.449977 -0.741135,-7.679841 -0.02834,-10.416451 0.760727,-2.920626 2.487357,-5.986767 4.751496,-8.437679 3.871036,-4.190366 8.696085,-6.299959 14.463888,-6.323856 5.694072,-0.02359 10.290187,1.88381 14.268765,5.921581 3.832922,3.889947 5.623188,8.328238 5.623188,13.940573 0,5.702449 -1.82306,10.144596 -5.806883,14.149318 -4.769909,4.794927 -11.676895,6.847166 -18.244803,5.420984 z m 13.877967,-5.334315 c 1.756494,-1.895288 0.571443,-4.710986 -1.982727,-4.710986 -1.787571,0 -2.796617,0.960427 -2.796617,2.661869 0,2.66734 3.010273,3.957978 4.779344,2.049117 z m -6.485938,-7.295341 c 0.330042,-0.589751 0.08244,-0.708503 -2.330867,-1.117884 -1.771035,-0.300429 -4.255609,-1.558647 -5.840317,-2.957606 -0.679097,-0.599498 -1.343087,-1.092533 -1.475532,-1.095632 -0.273946,-0.0064 -0.483151,0.65704 -0.799742,2.536211 -0.199039,1.181427 -0.123251,1.357265 0.788131,1.828558 2.725249,1.409282 9.026503,1.93536 9.658327,0.806353 z M 56.598446,43.768146 c 0.697745,-0.548847 0.929519,-1.048975 0.929519,-2.005736 0,-3.648624 -4.942994,-3.985121 -5.520737,-0.375827 -0.406096,2.536975 2.486276,4.03731 4.591218,2.381563 z m 16.336737,-1.385507 0.444759,-1.5875 -0.08601,1.499306 c -0.07983,1.391725 -0.02206,1.499058 0.805262,1.495859 2.225531,-0.0086 7.111366,-3.343209 8.318391,-5.677337 0.47361,-0.915861 0.435926,-1.007155 -0.922208,-2.234147 -0.778797,-0.703597 -2.12444,-1.623456 -2.990317,-2.044132 -1.827602,-0.887918 -2.080807,-1.425833 -0.451159,-0.958457 0.617739,0.177166 1.147548,0.285147 1.177353,0.239958 0.565431,-0.857277 1.227262,-3.51856 1.227262,-4.934932 0,-2.29924 -1.327595,-5.074571 -2.925079,-6.114866 -2.760635,-1.797748 -5.140448,-2.405959 -9.422143,-2.408025 -4.334349,-0.0021 -6.392541,0.529717 -9.0248,2.331879 -2.340385,1.602333 -3.626924,6.197 -2.478132,8.850252 0.521914,1.205413 1.667388,2.78719 1.588488,2.19353 C 58.17106,32.84 58.1847,32.205 58.22716,31.622916 c 0.05716,-0.783543 0.203933,-0.479474 0.565303,1.171097 1.532732,7.000799 6.294591,11.483446 11.949364,11.248712 l 1.748589,-0.07259 z"
         id="path53"
         inkscape:connector-curvature="0"
         sodipodi:nodetypes="ssssssssssssscsscsccssssccccsssccsscssccsccc" />
      <path
         style="fill:#2eb4cc;stroke-width:0.35277778"
         d="M 64.054354,58.401922 C 60.096348,57.524183 57.349177,55.990746 54.341096,52.980105 50.157028,48.792475 48.372194,44.57245 48.360958,38.840785 48.344102,30.242579 53.786892,22.7381 62.09368,19.906206 c 2.90997,-0.992047 8.40486,-1.107473 11.333449,-0.23807 6.172657,1.83246 11.171474,6.423513 13.333829,12.246159 3.462489,9.323555 -0.383526,19.651366 -9.12466,24.502702 -3.985008,2.211684 -9.153395,2.967016 -13.581944,1.984925 z m 8.50618,-0.985643 c 2.974004,-0.791912 3.523798,-1.344412 1.018819,-1.023835 -2.815879,0.360366 -10.407609,0.231694 -11.982258,-0.203087 -0.690103,-0.190546 -1.17173,-0.212147 -1.070282,-0.048 0.172244,0.278698 2.638224,1.166259 4.233096,1.523584 1.555236,0.348446 6.102592,0.203493 7.800625,-0.248659 z m 5.268188,-4.257882 c 1.274934,-1.274934 1.183204,-3.037718 -0.219491,-4.218009 -0.59697,-0.502317 -1.319229,-0.913304 -1.605019,-0.913304 -1.068081,0 -2.537291,1.072861 -2.902028,2.119147 -1.009177,2.894929 2.565608,5.173098 4.726538,3.012166 z m -6.485129,-7.36289 c 0.330042,-0.589751 0.08244,-0.708503 -2.330867,-1.117884 -1.771035,-0.300429 -4.255609,-1.558647 -5.840317,-2.957606 -0.679097,-0.599498 -1.343087,-1.092533 -1.475532,-1.095632 -0.273946,-0.0064 -0.483151,0.65704 -0.799742,2.536211 -0.199039,1.181427 -0.123251,1.357265 0.788131,1.828558 2.725249,1.409282 9.026503,1.93536 9.658327,0.806353 z M 56.967439,43.413906 c 1.005184,-1.194594 1.082133,-1.599616 0.563212,-2.96448 -0.402762,-1.059344 -2.134746,-1.913997 -3.391803,-1.673695 -1.138229,0.217586 -2.255327,1.686178 -2.255327,2.964963 0,1.448222 1.401881,2.758612 2.951216,2.758612 0.928563,0 1.437227,-0.258875 2.132702,-1.0854 z m 15.967744,-1.031267 0.444759,-1.5875 -0.08601,1.499306 c -0.07983,1.391725 -0.02206,1.499058 0.805262,1.495859 2.225531,-0.0086 7.111366,-3.343209 8.318391,-5.677337 0.47361,-0.915861 0.435926,-1.007155 -0.922208,-2.234147 -0.778797,-0.703597 -2.12444,-1.623456 -2.990317,-2.044132 -1.827602,-0.887918 -2.080807,-1.425833 -0.451159,-0.958457 0.617739,0.177166 1.147548,0.285147 1.177353,0.239958 0.565431,-0.857277 1.227262,-3.51856 1.227262,-4.934932 0,-2.29924 -1.327595,-5.074571 -2.925079,-6.114866 -2.760635,-1.797748 -5.140448,-2.405959 -9.422143,-2.408025 -4.334349,-0.0021 -6.392541,0.529717 -9.0248,2.331879 -2.340385,1.602333 -3.626924,6.197 -2.478132,8.850252 0.521914,1.205413 1.667388,2.78719 1.588488,2.19353 C 58.17106,32.84 58.1847,32.205 58.22716,31.622916 c 0.05716,-0.783543 0.203933,-0.479474 0.565303,1.171097 1.532732,7.000799 6.294591,11.483446 11.949364,11.248712 l 1.748589,-0.07259 z"
         id="path51"
         inkscape:connector-curvature="0"
         sodipodi:nodetypes="sssssssscssssccssssscsscsccssssssccccsssccsscssccsccc" />
      <path
         style="fill:#55a4b2;stroke-width:0.35277778"
         d="M 64.054354,58.401922 C 60.096348,57.524183 57.349177,55.990746 54.341096,52.980105 50.157028,48.792475 48.372194,44.57245 48.360958,38.840785 48.344102,30.242579 53.786892,22.7381 62.09368,19.906206 c 2.90997,-0.992047 8.40486,-1.107473 11.333449,-0.23807 6.172657,1.83246 11.171474,6.423513 13.333829,12.246159 3.462489,9.323555 -0.383526,19.651366 -9.12466,24.502702 -3.985008,2.211684 -9.153395,2.967016 -13.581944,1.984925 z m 8.50618,-0.985643 c 2.974004,-0.791912 3.523798,-1.344412 1.018819,-1.023835 -2.815879,0.360366 -10.407609,0.231694 -11.982258,-0.203087 -0.690103,-0.190546 -1.17173,-0.212147 -1.070282,-0.048 0.172244,0.278698 2.638224,1.166259 4.233096,1.523584 1.555236,0.348446 6.102592,0.203493 7.800625,-0.248659 z m 5.268188,-4.257882 c 1.274934,-1.274934 1.183204,-3.037718 -0.219491,-4.218009 -0.59697,-0.502317 -1.319229,-0.913304 -1.605019,-0.913304 -1.068081,0 -2.537291,1.072861 -2.902028,2.119147 -1.009177,2.894929 2.565608,5.173098 4.726538,3.012166 z M 65.818243,51.190585 c 2.03643,-0.975071 4.00611,-2.706578 5.180016,-4.553652 l 1.022255,-1.60846 -0.984469,-0.222845 c -0.973587,-0.220381 -0.97167,-0.223306 0.173426,-0.264583 0.848623,-0.03059 1.243114,-0.253749 1.476945,-0.835489 0.267385,-0.66522 0.322669,-0.687425 0.34141,-0.137128 0.05647,1.658174 5.740105,-0.868473 8.261139,-3.67247 0.901449,-1.002628 1.638999,-2.093591 1.638999,-2.424361 0,-0.760577 -1.478724,-2.176484 -3.527778,-3.377914 -1.577924,-0.925191 -0.726554,-0.900144 1.108189,0.0326 0.881466,0.44812 0.954903,0.41793 1.359514,-0.558887 0.861436,-2.079691 -0.59629,-8.894336 -2.196843,-10.269905 -1.007221,-0.865638 -3.635743,-2.252992 -5.624788,-2.968804 -2.395529,-0.862096 -7.443289,-1.053671 -10.259638,-0.389377 -3.804427,0.897352 -8.309598,3.547541 -7.889896,4.641269 0.09433,0.245831 0.07203,0.546455 -0.04957,0.668054 -0.668643,0.668644 -1.210193,6.748991 -0.752494,8.448756 0.452607,1.680855 2.378107,4.739487 3.135214,4.980247 0.293049,0.09319 0.957637,0.563599 1.476863,1.045355 1.308756,1.21431 1.420309,0.449975 0.2516,-1.723902 -0.90731,-1.687659 -1.765686,-5.091166 -1.691163,-6.705551 0.01851,-0.400928 0.264179,0.443095 0.545937,1.875605 0.537073,2.730591 1.329594,4.593616 2.547631,5.988863 0.62345,0.714156 0.656356,0.902563 0.231787,1.327132 -1.209553,1.209553 -1.14154,7.30776 0.113138,10.144168 0.698694,1.579513 0.829593,1.691045 1.728701,1.472924 0.535022,-0.129795 1.607767,-0.540037 2.383878,-0.911649 z m 1.411111,-7.207705 c -1.358762,-0.622167 -1.123531,-0.626831 1.058333,-0.02098 1.068313,0.296644 1.416101,0.492903 0.881944,0.497687 -0.485069,0.0043 -1.358194,-0.210173 -1.940277,-0.476705 z m -2.469445,-1.191611 c -0.582083,-0.355886 -1.296458,-0.948937 -1.5875,-1.31789 -0.350697,-0.444579 -0.158422,-0.374626 0.570102,0.207413 0.604597,0.48303 1.398347,1.067338 1.763889,1.298462 0.365541,0.231125 0.585245,0.428969 0.488232,0.439654 -0.09701,0.01069 -0.652639,-0.271753 -1.234723,-0.627639 z m 8.34598,-1.114186 c 0,-0.485069 0.08007,-0.683507 0.177936,-0.440972 0.09787,0.242535 0.09787,0.63941 0,0.881945 -0.09786,0.242534 -0.177936,0.0441 -0.177936,-0.440973 z m -16.13845,1.736823 c 1.005184,-1.194594 1.082133,-1.599616 0.563212,-2.96448 -0.402762,-1.059344 -2.134746,-1.913997 -3.391803,-1.673695 -1.138229,0.217586 -2.255327,1.686178 -2.255327,2.964963 0,1.448222 1.401881,2.758612 2.951216,2.758612 0.928563,0 1.437227,-0.258875 2.132702,-1.0854 z"
         id="path49"
         inkscape:connector-curvature="0"
         sodipodi:nodetypes="sssssssscssssccssssscscsscsssscssssccscsscssssscccscccscsccssccsssssss" />
      <path
         style="fill:#489aa8;stroke-width:0.35277778"
         d="M 65.818243,58.717112 C 58.355173,57.72727 51.803236,52.378876 49.347653,45.272045 48.664059,43.29362 48.535962,42.226982 48.555806,38.678472 c 0.01992,-3.561928 0.154484,-4.569036 0.848455,-6.35 1.927248,-4.945968 5.38562,-8.916949 9.651698,-11.082297 3.024949,-1.535384 5.556484,-2.137786 9.004417,-2.142683 5.663898,-0.008 9.967679,1.777233 13.996367,5.805922 4.123617,4.123618 5.81011,8.251803 5.81011,14.221948 0,7.912725 -4.618754,14.947688 -11.889243,18.10886 -2.85014,1.239227 -7.192159,1.870435 -10.159367,1.47689 z m 8.643055,-1.807602 c 1.999082,-0.786148 4.411224,-2.130093 4.184925,-2.331664 -0.07039,-0.0627 -1.556731,0.181314 -3.302981,0.542248 -4.251753,0.878801 -9.926331,0.867177 -14.270954,-0.02925 -1.834164,-0.378439 -3.394439,-0.628474 -3.467278,-0.555636 -0.256917,0.256918 3.156835,2.05359 5.143254,2.706917 2.828491,0.930286 8.943147,0.756638 11.713034,-0.332631 z m 3.502173,-3.814723 c 1.269409,-1.613793 0.85442,-3.711525 -0.921342,-4.657302 -1.905494,-1.014872 -4.133053,0.350238 -4.133053,2.532848 0,2.773402 3.414893,4.208742 5.054395,2.124454 z M 65.818243,51.190585 c 2.03643,-0.975071 4.00611,-2.706578 5.180016,-4.553652 l 1.022255,-1.60846 -0.984469,-0.222845 c -0.973587,-0.220381 -0.97167,-0.223306 0.173426,-0.264583 0.848623,-0.03059 1.243114,-0.253749 1.476945,-0.835489 0.267385,-0.66522 0.322669,-0.687425 0.34141,-0.137128 0.05647,1.658174 5.740105,-0.868473 8.261139,-3.67247 0.901449,-1.002628 1.638999,-2.093591 1.638999,-2.424361 0,-0.760577 -1.478724,-2.176484 -3.527778,-3.377914 -1.577924,-0.925191 -0.726554,-0.900144 1.108189,0.0326 0.881466,0.44812 0.954903,0.41793 1.359514,-0.558887 0.861401,-2.079606 -0.596172,-8.893814 -2.196843,-10.270326 -1.288385,-1.107959 -4.690962,-2.752385 -6.86893,-3.319674 -3.97215,-1.034613 -9.477418,-0.44987 -13.113952,1.392901 -2.20989,1.119836 -4.009044,2.643213 -3.79144,3.210282 0.09433,0.245831 0.07203,0.546455 -0.04957,0.668054 -0.668643,0.668644 -1.210193,6.748991 -0.752494,8.448756 0.452607,1.680855 2.378107,4.739487 3.135214,4.980247 0.293049,0.09319 0.957637,0.563599 1.476863,1.045355 1.308756,1.21431 1.420309,0.449975 0.2516,-1.723902 -0.90731,-1.687659 -1.765686,-5.091166 -1.691163,-6.705551 0.01851,-0.400928 0.264179,0.443095 0.545937,1.875605 0.537073,2.730591 1.329594,4.593616 2.547631,5.988863 0.62345,0.714156 0.656356,0.902563 0.231787,1.327132 -1.209553,1.209553 -1.14154,7.30776 0.113138,10.144168 0.698694,1.579513 0.829593,1.691045 1.728701,1.472924 0.535022,-0.129795 1.607767,-0.540037 2.383878,-0.911649 z m 1.411111,-7.207705 c -1.358762,-0.622167 -1.123531,-0.626831 1.058333,-0.02098 1.068313,0.296644 1.416101,0.492903 0.881944,0.497687 -0.485069,0.0043 -1.358194,-0.210173 -1.940277,-0.476705 z m -2.469445,-1.191611 c -0.582083,-0.355886 -1.296458,-0.948937 -1.5875,-1.31789 -0.350697,-0.444579 -0.158422,-0.374626 0.570102,0.207413 0.604597,0.48303 1.398347,1.067338 1.763889,1.298462 0.365541,0.231125 0.585245,0.428969 0.488232,0.439654 -0.09701,0.01069 -0.652639,-0.271753 -1.234723,-0.627639 z m 8.34598,-1.114186 c 0,-0.485069 0.08007,-0.683507 0.177936,-0.440972 0.09787,0.242535 0.09787,0.63941 0,0.881945 -0.09786,0.242534 -0.177936,0.0441 -0.177936,-0.440973 z m -16.828451,2.603084 c 0.683684,-0.262354 1.603305,-1.93644 1.603305,-2.91867 0,-1.04446 -1.430244,-2.477217 -2.719894,-2.724673 -0.946841,-0.181678 -1.308127,-0.04155 -2.204861,0.855186 -2.486307,2.486306 -0.0043,6.06436 3.32145,4.788157 z"
         id="path47"
         inkscape:connector-curvature="0"
         sodipodi:nodetypes="ssssscssssccscccccsssscscsscsssscssssccscsscssssscccscccscsccssccscsscc" />
      <path
         style="fill:#00a3d0;stroke-width:0.35277778"
         d="M 61.926486,57.632765 C 50.286006,53.678037 45.012735,40.488552 50.715495,29.591879 56.871841,17.828507 72.74655,15.459358 82.083027,24.910573 c 3.956635,4.005259 5.771793,8.368615 5.779638,13.893366 0.008,5.663899 -1.777234,9.967679 -5.805922,13.996369 -4.074009,4.074009 -8.330375,5.816647 -14.172755,5.802595 -2.460836,-0.0059 -3.725615,-0.211878 -5.957502,-0.970138 z m 11.461411,-0.302694 c 2.490938,-0.706145 4.81727,-1.91261 6.365067,-3.301002 1.205017,-1.080913 1.212171,-1.102817 0.297357,-0.910444 -0.515551,0.108414 -1.190239,0.294153 -1.499306,0.412753 -0.610067,0.234106 -0.784907,-0.385964 -0.209162,-0.741794 0.194028,-0.119916 0.352778,-0.850876 0.352778,-1.624355 0,-2.915454 -2.919048,-4.153926 -4.966025,-2.106949 -1.525203,1.525203 -1.169573,3.771576 0.760629,4.804588 0.818281,0.437931 0.808767,0.451358 -0.567998,0.801642 -4.214745,1.072342 -9.240285,0.796078 -14.767235,-0.811788 -1.725055,-0.501842 -3.30236,-0.857141 -3.505124,-0.789554 -0.613694,0.204565 3.59925,3.010753 5.700164,3.796805 3.868175,1.447267 8.019982,1.60939 12.038855,0.470098 z m -7.569654,-6.139486 c 2.03643,-0.975071 4.00611,-2.706578 5.180016,-4.553652 l 1.022255,-1.60846 -0.984469,-0.222845 c -0.973587,-0.220381 -0.97167,-0.223306 0.173426,-0.264583 0.848623,-0.03059 1.243114,-0.253749 1.476945,-0.835489 0.267385,-0.66522 0.322669,-0.687425 0.34141,-0.137128 0.05647,1.658174 5.740105,-0.868473 8.261139,-3.67247 0.901449,-1.002628 1.638999,-2.093591 1.638999,-2.424361 0,-0.760577 -1.478724,-2.176484 -3.527778,-3.377914 -1.577924,-0.925191 -0.726554,-0.900144 1.108189,0.0326 0.881466,0.44812 0.954903,0.41793 1.359514,-0.558887 0.498759,-1.204112 0.03914,-5.528023 -0.856385,-8.056465 C 80.379117,23.72543 79.605034,22.990638 76.844983,21.555897 71.55898,18.808104 64.86497,18.747011 59.631916,21.3988 c -2.159635,1.09437 -3.950731,2.620094 -3.735192,3.181779 0.09433,0.245831 0.07203,0.546455 -0.04957,0.668054 -0.668643,0.668644 -1.210193,6.748991 -0.752494,8.448756 0.452607,1.680855 2.378107,4.739487 3.135214,4.980247 0.293049,0.09319 0.957637,0.563599 1.476863,1.045355 1.308756,1.21431 1.420309,0.449975 0.2516,-1.723902 -0.90731,-1.687659 -1.765686,-5.091166 -1.691163,-6.705551 0.01851,-0.400928 0.264179,0.443095 0.545937,1.875605 0.537073,2.730591 1.329594,4.593616 2.547631,5.988863 0.62345,0.714156 0.656356,0.902563 0.231787,1.327132 -1.209553,1.209553 -1.14154,7.30776 0.113138,10.144168 0.698694,1.579513 0.829593,1.691045 1.728701,1.472924 0.535022,-0.129795 1.607767,-0.540037 2.383878,-0.911649 z m 1.411111,-7.207705 c -1.358762,-0.622167 -1.123531,-0.626831 1.058333,-0.02098 1.068313,0.296644 1.416101,0.492903 0.881944,0.497687 -0.485069,0.0043 -1.358194,-0.210173 -1.940277,-0.476705 z m -2.469445,-1.191611 c -0.582083,-0.355886 -1.296458,-0.948937 -1.5875,-1.31789 -0.350697,-0.444579 -0.158422,-0.374626 0.570102,0.207413 0.604597,0.48303 1.398347,1.067338 1.763889,1.298462 0.365541,0.231125 0.585245,0.428969 0.488232,0.439654 -0.09701,0.01069 -0.652639,-0.271753 -1.234723,-0.627639 z m 8.34598,-1.114186 c 0,-0.485069 0.08007,-0.683507 0.177936,-0.440972 0.09787,0.242535 0.09787,0.63941 0,0.881945 -0.09786,0.242534 -0.177936,0.0441 -0.177936,-0.440973 z m -15.748798,1.648961 c 0.839525,-1.198589 0.646855,-2.638364 -0.507544,-3.792764 -1.278905,-1.278905 -2.458262,-1.314733 -3.880626,-0.117892 -2.596728,2.185002 -0.353868,6.051835 2.888865,4.980585 0.536609,-0.177271 1.211297,-0.658739 1.499305,-1.069929 z"
         id="path45"
         inkscape:connector-curvature="0"
         sodipodi:nodetypes="ssscscsssccsssssscsscscsscsssscscssccscsscssssscccscccscsccssccscsssc" />
      <path
         style="fill:#01a5c9;stroke-width:0.35277778"
         d="M 61.926486,57.632765 C 50.286006,53.678037 45.012735,40.488552 50.715495,29.591879 56.871841,17.828507 72.74655,15.459358 82.083027,24.910573 c 3.956635,4.005259 5.771793,8.368615 5.779638,13.893366 0.008,5.663899 -1.777234,9.967679 -5.805922,13.996369 -4.074009,4.074009 -8.330375,5.816647 -14.172755,5.802595 -2.460836,-0.0059 -3.725615,-0.211878 -5.957502,-0.970138 z m 11.461411,-0.302694 c 2.490938,-0.706145 4.81727,-1.91261 6.365067,-3.301002 1.205017,-1.080913 1.212171,-1.102817 0.297357,-0.910444 -0.515551,0.108414 -1.190239,0.294153 -1.499306,0.412753 -0.610067,0.234106 -0.784907,-0.385964 -0.209162,-0.741794 0.194028,-0.119916 0.352778,-0.850876 0.352778,-1.624355 0,-2.915454 -2.919048,-4.153926 -4.966025,-2.106949 -1.525203,1.525203 -1.169573,3.771576 0.760629,4.804588 0.818281,0.437931 0.808767,0.451358 -0.567998,0.801642 -4.214745,1.072342 -9.240285,0.796078 -14.767235,-0.811788 -1.725055,-0.501842 -3.30236,-0.857141 -3.505124,-0.789554 -0.613694,0.204565 3.59925,3.010753 5.700164,3.796805 3.868175,1.447267 8.019982,1.60939 12.038855,0.470098 z m -7.569654,-6.139486 c 2.03643,-0.975071 4.00611,-2.706578 5.180016,-4.553652 l 1.022255,-1.60846 -0.984469,-0.222845 c -0.973587,-0.220381 -0.97167,-0.223306 0.173426,-0.264583 0.848623,-0.03059 1.243114,-0.253749 1.476945,-0.835489 0.267385,-0.66522 0.322669,-0.687425 0.34141,-0.137128 0.05647,1.658174 5.740105,-0.868473 8.261139,-3.67247 0.901449,-1.002628 1.638999,-2.093591 1.638999,-2.424361 0,-0.760577 -1.478724,-2.176484 -3.527778,-3.377914 -1.577924,-0.925191 -0.726554,-0.900144 1.108189,0.0326 0.881466,0.44812 0.954903,0.41793 1.359514,-0.558887 0.498759,-1.204112 0.03914,-5.528023 -0.856385,-8.056465 C 80.379117,23.72543 79.605034,22.990638 76.844983,21.555897 71.55898,18.808104 64.86497,18.747011 59.631916,21.3988 c -2.159635,1.09437 -3.950731,2.620094 -3.735192,3.181779 0.09433,0.245831 0.07203,0.546455 -0.04957,0.668054 -0.668643,0.668644 -1.210193,6.748991 -0.752494,8.448756 0.452607,1.680855 2.378107,4.739487 3.135214,4.980247 0.293049,0.09319 0.957637,0.563599 1.476863,1.045355 1.308756,1.21431 1.420309,0.449975 0.2516,-1.723902 -0.90731,-1.687659 -1.765686,-5.091166 -1.691163,-6.705551 0.01851,-0.400928 0.264179,0.443095 0.545937,1.875605 0.537073,2.730591 1.329594,4.593616 2.547631,5.988863 0.62345,0.714156 0.656356,0.902563 0.231787,1.327132 -1.209553,1.209553 -1.14154,7.30776 0.113138,10.144168 0.698694,1.579513 0.829593,1.691045 1.728701,1.472924 0.535022,-0.129795 1.607767,-0.540037 2.383878,-0.911649 z m 1.411111,-7.207705 c -1.358762,-0.622167 -1.123531,-0.626831 1.058333,-0.02098 1.068313,0.296644 1.416101,0.492903 0.881944,0.497687 -0.485069,0.0043 -1.358194,-0.210173 -1.940277,-0.476705 z m -2.557639,-1.243597 c -0.63059,-0.384478 -1.146528,-0.775406 -1.146528,-0.868728 0,-0.09332 0.555625,0.15815 1.234722,0.558827 0.679098,0.400678 1.234723,0.792199 1.234723,0.870048 0,0.225678 -0.11151,0.178463 -1.322917,-0.560147 z m 8.434174,-1.0622 c 0,-0.485069 0.08007,-0.683507 0.177936,-0.440972 0.09787,0.242535 0.09787,0.63941 0,0.881945 -0.09786,0.242534 -0.177936,0.0441 -0.177936,-0.440973 z m -15.748798,1.648961 c 0.839525,-1.198589 0.646855,-2.638364 -0.507544,-3.792764 -1.278905,-1.278905 -2.458262,-1.314733 -3.880626,-0.117892 -2.596728,2.185002 -0.353868,6.051835 2.888865,4.980585 0.536609,-0.177271 1.211297,-0.658739 1.499305,-1.069929 z"
         id="path43"
         inkscape:connector-curvature="0"
         sodipodi:nodetypes="ssscscsssccsssssscsscscsscsssscscssccscsscssssscccscccssssssccscsssc" />
      <path
         style="fill:#3194a6;stroke-width:0.35277778"
         d="M 61.926486,57.632765 C 50.286006,53.678037 45.012735,40.488552 50.715495,29.591879 56.871841,17.828507 72.74655,15.459358 82.083027,24.910573 c 3.956635,4.005259 5.771793,8.368615 5.779638,13.893366 0.008,5.663899 -1.777234,9.967679 -5.805922,13.996369 -4.074009,4.074009 -8.330375,5.816647 -14.172755,5.802595 -2.460836,-0.0059 -3.725615,-0.211878 -5.957502,-0.970138 z m 11.461411,-0.302694 c 2.490938,-0.706145 4.81727,-1.91261 6.365067,-3.301002 1.205017,-1.080913 1.212171,-1.102817 0.297357,-0.910444 -0.515551,0.108414 -1.190239,0.294153 -1.499306,0.412753 -0.610067,0.234106 -0.784907,-0.385964 -0.209162,-0.741794 0.194028,-0.119916 0.352778,-0.850876 0.352778,-1.624355 0,-2.915454 -2.919048,-4.153926 -4.966025,-2.106949 -1.525203,1.525203 -1.169573,3.771576 0.760629,4.804588 0.818281,0.437931 0.808767,0.451358 -0.567998,0.801642 -4.214745,1.072342 -9.240285,0.796078 -14.767235,-0.811788 -1.725055,-0.501842 -3.30236,-0.857141 -3.505124,-0.789554 -0.613694,0.204565 3.59925,3.010753 5.700164,3.796805 3.868175,1.447267 8.019982,1.60939 12.038855,0.470098 z m -7.569654,-6.139486 c 0.776111,-0.371613 2.029107,-1.186304 2.784436,-1.810426 1.455863,-1.202967 3.482923,-4.090984 3.196589,-4.554282 -0.187937,-0.304088 0.375171,-0.499126 2.463852,-0.853377 2.281428,-0.386942 5.265028,-2.118089 7.025845,-4.076542 0.901449,-1.002628 1.638999,-2.074918 1.638999,-2.382864 0,-0.307947 -0.426576,-1.005153 -0.947946,-1.549346 -0.52137,-0.544194 -0.764478,-0.989443 -0.540238,-0.989443 0.224239,0 0.31633,-0.238125 0.204647,-0.529166 -0.127422,-0.332056 0.0035,-0.529167 0.351437,-0.529167 0.795967,0 1.284878,-1.122593 1.284878,-2.950221 0,-0.942542 0.215685,-1.801179 0.531872,-2.117366 0.571941,-0.571941 0.117299,-1.154456 -0.569665,-0.729889 -0.258424,0.159715 -0.315726,0.0056 -0.169358,-0.455604 0.169252,-0.533267 -0.293686,-1.213494 -1.970779,-2.895798 -3.519237,-3.530172 -7.860105,-5.315012 -12.926516,-5.315012 -5.260777,0 -9.697637,1.868064 -13.11594,5.52224 -2.479764,2.650876 -2.891813,3.326701 -2.452066,4.021769 0.222454,0.351612 0.324439,0.373114 0.328162,0.06919 0.003,-0.242534 0.124465,-0.440775 0.269986,-0.440534 0.145521,2.41e-4 0.269367,0.992428 0.275214,2.204861 0.01323,2.742245 0.323995,3.686992 1.022209,3.107526 0.395947,-0.328607 0.546362,-0.248105 0.74971,0.40124 0.391935,1.25156 2.379655,4.149537 2.9763,4.33927 0.293049,0.09319 0.957637,0.563599 1.476863,1.045355 1.18611,1.100514 1.491577,0.472164 0.547956,-1.127154 -0.896744,-1.519868 -0.300807,-1.483003 0.686928,0.04249 0.730462,1.128154 0.741678,1.260965 0.230509,2.729661 -0.763866,2.194754 -0.493591,6.98629 0.522081,9.25563 0.709007,1.584152 0.841398,1.696644 1.740157,1.478608 0.535022,-0.129795 1.607767,-0.540037 2.383878,-0.911649 z m -8.461152,-7.864541 c 0.839525,-1.198589 0.646855,-2.638364 -0.507544,-3.792764 -1.278905,-1.278905 -2.458262,-1.314733 -3.880626,-0.117892 -2.596728,2.185002 -0.353868,6.051835 2.888865,4.980585 0.536609,-0.177271 1.211297,-0.658739 1.499305,-1.069929 z"
         id="path41"
         inkscape:connector-curvature="0"
         sodipodi:nodetypes="ssscscsssccsssssscsscsssssssssssscsssscscsccsscsssccsssc" />
      <path
         style="fill:#06a3bb;stroke-width:0.35277778"
         d="M 61.926486,57.632765 C 52.0457,54.275872 46.458934,43.871501 49.096723,33.739583 c 1.037952,-3.986841 4.522505,-8.826329 8.051723,-11.182556 l 1.614241,-1.077723 -1.895583,1.697632 c -2.661476,2.383546 -4.652366,4.980698 -4.374037,5.706012 0.142707,0.37189 0.277276,0.43228 0.366539,0.164492 0.3419,-1.0257 0.61224,-0.251174 0.622046,1.782164 0.01323,2.742245 0.323995,3.686992 1.022209,3.107526 0.395947,-0.328607 0.546362,-0.248105 0.74971,0.40124 0.391935,1.25156 2.379655,4.149537 2.9763,4.33927 0.293049,0.09319 0.957637,0.563599 1.476863,1.045355 1.18611,1.100514 1.491577,0.472164 0.547956,-1.127154 -0.896744,-1.519868 -0.300807,-1.483003 0.686928,0.04249 0.730726,1.128561 0.741818,1.260434 0.229598,2.729661 -0.392762,1.12658 -0.494429,2.449555 -0.376181,4.895199 0.192607,3.983587 0.961007,5.997222 2.288532,5.997222 2.924515,0 8.926367,-5.214048 8.604451,-7.47503 -0.03948,-0.277285 0.591434,-0.476446 2.575102,-0.812887 2.281428,-0.386942 5.265028,-2.118089 7.025845,-4.076542 0.901449,-1.002628 1.638999,-2.074918 1.638999,-2.382864 0,-0.307947 -0.426576,-1.005153 -0.947946,-1.549346 -0.52137,-0.544194 -0.764478,-0.989443 -0.540238,-0.989443 0.224239,0 0.31633,-0.238125 0.204647,-0.529166 -0.127422,-0.332056 0.0035,-0.529167 0.351437,-0.529167 0.795967,0 1.284878,-1.122593 1.284878,-2.950221 0,-0.942542 0.215685,-1.801179 0.531872,-2.117366 0.571941,-0.571941 0.117299,-1.154456 -0.569665,-0.729889 -0.25907,0.160114 -0.315316,0.0043 -0.167055,-0.462859 0.174012,-0.548256 -0.345062,-1.274564 -2.343455,-3.279061 -2.419668,-2.427058 -2.468242,-2.505584 -0.846457,-1.368404 2.4689,1.731168 4.288222,3.971897 5.848865,7.203633 2.898564,6.002258 2.882022,11.753824 -0.05124,17.815279 -1.392181,2.876883 -5.264433,6.813074 -8.223701,8.359493 -4.730801,2.472168 -10.550558,2.939066 -15.533423,1.246188 z M 74.10852,57.240811 c 2.645912,-0.843033 6.345183,-3.147367 7.236547,-4.507762 0.589333,-0.899436 0.587494,-0.924972 -0.0489,-0.678905 -0.363694,0.140626 -1.097825,0.343785 -1.631401,0.451465 -0.934549,0.188598 -0.970139,0.141807 -0.970139,-1.275463 0,-2.979803 -2.892895,-4.244996 -4.966025,-2.171866 -1.467687,1.467688 -1.278209,3.261613 0.493153,4.669037 0.717442,0.570039 0.691649,0.592529 -1.011428,0.881944 -2.744141,0.46633 -8.928621,0.28538 -11.096255,-0.324665 -1.067153,-0.300334 -3.088234,-0.958011 -4.491291,-1.461508 -1.403057,-0.503497 -2.744963,-0.915448 -2.982012,-0.915448 -0.237049,0 0.183579,0.629384 0.93473,1.398632 1.65894,1.698908 5.378372,3.707085 8.177207,4.41499 2.716933,0.687194 7.368395,0.471389 10.35581,-0.480451 z M 57.086993,43.584407 c 2.302485,-2.576853 -0.777963,-6.342803 -3.845419,-4.70115 -0.998084,0.534158 -1.786428,2.55027 -1.396223,3.570702 0.914775,2.392247 3.597267,2.970771 5.241642,1.130448 z m 1.852083,-22.154303 c 0,-0.07626 0.24637,-0.233187 0.54749,-0.348737 0.313945,-0.120473 0.455549,-0.06133 0.331957,0.138645 -0.207171,0.335211 -0.879447,0.495811 -0.879447,0.210092 z"
         id="path39"
         inkscape:connector-curvature="0"
         sodipodi:nodetypes="csscscccsccsssssscsssssssssscssssscccsccsssscssscccsssssccs" />
      <path
         style="fill:#0098c3;stroke-width:0.35277778"
         d="M 61.926486,57.632765 C 55.123443,55.321502 50.372112,49.898804 48.844458,42.702233 47.505794,36.395966 49.422784,30.081539 54.134255,25.278015 l 2.427123,-2.474544 -2.123061,2.351956 c -2.065336,2.288005 -3.778669,5.266714 -4.178085,7.263797 -0.143746,0.718728 9.07e-4,1.162679 0.536876,1.647725 0.4035,0.365162 0.733635,0.842406 0.733635,1.060542 0,0.218137 0.3175,0.625453 0.705556,0.905148 0.388055,0.279694 0.705555,0.715018 0.705555,0.967386 0,0.252368 0.402276,0.64214 0.893947,0.86616 l 0.893946,0.40731 -1.083541,0.455594 c -1.32257,0.556099 -2.266209,2.507913 -1.800855,3.72487 0.878076,2.296275 3.701305,2.955651 5.199165,1.214286 0.459925,-0.534695 0.836227,-1.384799 0.836227,-1.889121 0,-0.865979 0.03586,-0.884495 0.645139,-0.333106 0.827999,0.749329 1.444672,0.739335 2.068264,-0.03352 0.466221,-0.577815 0.486948,-0.572165 0.323569,0.08819 -0.764119,3.088483 -0.45348,7.025936 0.75408,9.558216 0.713437,1.496093 1.543524,1.547721 4.174177,0.259616 2.150968,-1.053227 5.212598,-4.071358 5.970785,-5.885956 0.436501,-1.044693 0.688082,-1.212341 2.049593,-1.365803 3.11505,-0.351111 7.029495,-2.85936 8.887258,-5.694665 0.470936,-0.718742 0.49972,-1.031615 0.156246,-1.698446 -0.34786,-0.675349 -0.339956,-0.74077 0.04548,-0.376435 0.256586,0.242535 0.593517,0.440972 0.748739,0.440972 0.155222,0 0.283598,-0.198437 0.285281,-0.440972 0.0018,-0.242535 0.56104,-1.02964 1.243012,-1.749124 l 1.239947,-1.308151 -0.691282,-1.966823 c -0.930529,-2.647527 -3.503792,-6.17007 -5.667698,-7.758523 -0.974315,-0.715213 -1.771482,-1.376106 -1.771482,-1.468651 0,-0.421689 3.40662,2.33163 4.647378,3.756133 1.686204,1.935914 3.971216,6.564562 4.493062,9.101392 1.351509,6.570046 -0.641448,13.166579 -5.407028,17.896833 -4.109051,4.078592 -8.359707,5.816622 -14.191277,5.802595 -2.460836,-0.0059 -3.725615,-0.211878 -5.957502,-0.970138 z M 74.10852,57.240811 c 2.645912,-0.843033 6.345183,-3.147367 7.236547,-4.507762 0.589333,-0.899436 0.587494,-0.924972 -0.0489,-0.678905 -0.363694,0.140626 -1.097825,0.343785 -1.631401,0.451465 -0.934549,0.188598 -0.970139,0.141807 -0.970139,-1.275463 0,-2.979803 -2.892895,-4.244996 -4.966025,-2.171866 -1.467687,1.467688 -1.278209,3.261613 0.493153,4.669037 0.717442,0.570039 0.691649,0.592529 -1.011428,0.881944 -2.744141,0.46633 -8.928621,0.28538 -11.096255,-0.324665 -1.067153,-0.300334 -3.088234,-0.958011 -4.491291,-1.461508 -1.403057,-0.503497 -2.744963,-0.915448 -2.982012,-0.915448 -0.237049,0 0.183579,0.629384 0.93473,1.398632 1.65894,1.698908 5.378372,3.707085 8.177207,4.41499 2.716933,0.687194 7.368395,0.471389 10.35581,-0.480451 z M 61.290928,40.030787 c -0.129352,-0.129352 -0.235185,-0.399227 -0.235185,-0.599722 0,-0.221052 0.164314,-0.200224 0.417453,0.05292 0.2296,0.2296 0.335434,0.499475 0.235186,0.599723 -0.100248,0.100247 -0.288102,0.07644 -0.417454,-0.05292 z"
         id="path37"
         inkscape:connector-curvature="0"
         sodipodi:nodetypes="csscsscsssccsssssscsssscccscscssssssccccsccsssscsssccccsccc" />
      <path
         style="fill:#2b8898;stroke-width:0.35277778"
         d="M 61.926486,57.632765 C 55.123443,55.321502 50.372112,49.898804 48.844458,42.702233 47.505794,36.395966 49.422784,30.081539 54.134255,25.278015 l 2.427123,-2.474544 -2.123061,2.351956 c -2.065336,2.288005 -3.778669,5.266714 -4.178085,7.263797 -0.143746,0.718728 9.07e-4,1.162679 0.536876,1.647725 0.4035,0.365162 0.733635,0.842406 0.733635,1.060542 0,0.218137 0.3175,0.625453 0.705556,0.905148 0.388055,0.279694 0.705555,0.715018 0.705555,0.967386 0,0.252368 0.402276,0.64214 0.893947,0.86616 l 0.893946,0.40731 -1.083541,0.455594 c -1.32257,0.556099 -2.266209,2.507913 -1.800855,3.72487 0.878076,2.296275 3.701305,2.955651 5.199165,1.214286 0.459925,-0.534695 0.836227,-1.384799 0.836227,-1.889121 0,-0.865979 0.03586,-0.884495 0.645139,-0.333106 0.827999,0.749329 1.444672,0.739335 2.068264,-0.03352 0.466221,-0.577815 0.486948,-0.572165 0.323569,0.08819 -0.764119,3.088483 -0.45348,7.025936 0.75408,9.558216 0.713437,1.496093 1.543524,1.547721 4.174177,0.259616 2.150968,-1.053227 5.212598,-4.071358 5.970785,-5.885956 0.436501,-1.044693 0.688082,-1.212341 2.049593,-1.365803 3.11505,-0.351111 7.029495,-2.85936 8.887258,-5.694665 0.470936,-0.718742 0.49972,-1.031615 0.156246,-1.698446 -0.34786,-0.675349 -0.339956,-0.74077 0.04548,-0.376435 0.256586,0.242535 0.593517,0.440972 0.748739,0.440972 0.155222,0 0.283598,-0.198437 0.285281,-0.440972 0.0018,-0.242535 0.56104,-1.02964 1.243012,-1.749124 l 1.239947,-1.308151 -0.691282,-1.966823 c -0.930529,-2.647527 -3.503792,-6.17007 -5.667698,-7.758523 -0.974315,-0.715213 -1.771482,-1.376106 -1.771482,-1.468651 0,-0.421689 3.40662,2.33163 4.647378,3.756133 1.686204,1.935914 3.971216,6.564562 4.493062,9.101392 1.351509,6.570046 -0.641448,13.166579 -5.407028,17.896833 -4.109051,4.078592 -8.359707,5.816622 -14.191277,5.802595 -2.460836,-0.0059 -3.725615,-0.211878 -5.957502,-0.970138 z M 74.10852,57.240811 c 2.645912,-0.843033 6.345183,-3.147367 7.236547,-4.507762 0.589333,-0.899436 0.587494,-0.924972 -0.0489,-0.678905 -0.363694,0.140626 -1.097825,0.343785 -1.631401,0.451465 -0.934549,0.188598 -0.970139,0.141807 -0.970139,-1.275463 0,-2.979803 -2.892895,-4.244996 -4.966025,-2.171866 -1.467687,1.467688 -1.278209,3.261613 0.493153,4.669037 0.717442,0.570039 0.691649,0.592529 -1.011428,0.881944 -2.744141,0.46633 -8.928621,0.28538 -11.096255,-0.324665 -1.067153,-0.300334 -3.088234,-0.958011 -4.491291,-1.461508 -1.403057,-0.503497 -2.744963,-0.915448 -2.982012,-0.915448 -0.237049,0 0.183579,0.629384 0.93473,1.398632 1.65894,1.698908 5.378372,3.707085 8.177207,4.41499 2.716933,0.687194 7.368395,0.471389 10.35581,-0.480451 z"
         id="path35"
         inkscape:connector-curvature="0"
         sodipodi:nodetypes="csscsscsssccsssssscsssscccscscssssssccccsccsssscsssccc" />
      <path
         style="fill:#0391ab;stroke-width:0.35277778"
         d="m 68.375881,58.37678 c 0.242535,-0.09786 0.63941,-0.09786 0.881945,0 0.242535,0.09786 0.0441,0.177938 -0.440972,0.177938 -0.48507,0 -0.683507,-0.08007 -0.440973,-0.177938 z M 57.527965,55.435417 c -0.317955,-0.205478 -0.361467,-0.344131 -0.109014,-0.347376 0.231084,-0.0028 0.518265,0.153349 0.638181,0.347376 0.270688,0.437985 0.148563,0.437985 -0.529167,0 z m -2.326573,-1.852082 -0.672038,-0.79375 0.79375,0.672037 c 0.436563,0.369621 0.79375,0.726808 0.79375,0.793751 0,0.282311 -0.283913,0.07389 -0.915462,-0.672038 z m 25.433517,0.08819 c 0.351185,-0.388055 0.717894,-0.705555 0.814907,-0.705555 0.09701,0 -0.110944,0.3175 -0.46213,0.705555 -0.351185,0.388056 -0.717894,0.705556 -0.814907,0.705556 -0.09701,0 0.110944,-0.3175 0.46213,-0.705556 z m -18.145063,-0.4005 c -2.116666,-0.35109 -8.054693,-2.292205 -8.762767,-2.86451 -0.839385,-0.67844 -0.915015,0.0936 -0.121556,1.240877 0.657226,0.950298 0.572713,0.905118 -0.503049,-0.268922 -1.937531,-2.11454 -3.965737,-6.638516 -4.410805,-9.838433 -0.391668,-2.815992 -0.04234,-6.925475 0.757565,-8.911876 1.29141,-3.206965 2.506336,-5.110501 4.685021,-7.340455 l 2.427123,-2.484238 -2.123061,2.351956 c -2.065336,2.288005 -3.778669,5.266714 -4.178085,7.263797 -0.143746,0.718728 9.07e-4,1.162679 0.536876,1.647725 0.4035,0.365162 0.733635,0.842406 0.733635,1.060542 0,0.218137 0.3175,0.625453 0.705556,0.905148 0.388055,0.279694 0.705555,0.715018 0.705555,0.967386 0,0.252368 0.402276,0.64214 0.893947,0.86616 l 0.893946,0.40731 -1.083541,0.455594 c -1.481982,0.623127 -2.335681,2.622992 -1.736844,4.068713 0.45458,1.097453 1.925852,2.054282 3.158777,2.054282 1.082704,0 2.812604,-1.861243 2.812604,-3.026151 0,-0.911327 0.0351,-0.931995 0.645139,-0.379915 0.827999,0.749329 1.444672,0.739335 2.068264,-0.03352 0.466221,-0.577815 0.486948,-0.572165 0.323569,0.08819 -0.794653,3.211896 -0.432832,7.199409 0.88823,9.788904 0.763947,1.497461 0.843132,1.502684 3.747983,0.247242 1.962171,-0.848027 5.163844,-3.899653 6.082589,-5.797526 0.660349,-1.364099 0.869046,-1.519166 2.254777,-1.675358 3.090661,-0.348363 7.0108,-2.866086 8.862314,-5.691854 0.470936,-0.718742 0.49972,-1.031615 0.156246,-1.698446 -0.34786,-0.675349 -0.339956,-0.74077 0.04548,-0.376435 0.256586,0.242535 0.593517,0.440972 0.748739,0.440972 0.155222,0 0.283598,-0.198437 0.285281,-0.440972 0.0018,-0.242535 0.56104,-1.02964 1.243012,-1.749124 l 1.239947,-1.308151 -0.691282,-1.966823 c -0.930529,-2.647527 -3.503792,-6.17007 -5.667698,-7.758523 -0.974315,-0.715213 -1.771482,-1.376106 -1.771482,-1.468651 0,-0.421689 3.40662,2.33163 4.647378,3.756133 1.686204,1.935914 3.971216,6.564562 4.493062,9.101392 0.761016,3.699504 0.209907,8.828195 -1.277531,11.888886 -0.902826,1.857738 -3.419791,5.447442 -3.966691,5.657306 -0.290526,0.111486 -0.147693,-0.202362 0.317408,-0.697439 1.117058,-1.189054 0.732608,-1.476401 -1.031129,-0.770694 -1.965234,0.786331 -2.362396,0.726663 -2.641238,-0.396811 -0.628337,-2.531625 -3.5506,-3.460924 -5.319794,-1.69173 -0.904205,0.904205 -1.16015,2.708671 -0.526351,3.710891 0.216819,0.342854 0.184951,0.611273 -0.0936,0.788348 -0.569772,0.36221 -8.062881,0.275331 -10.453525,-0.121204 z"
         id="path33"
         inkscape:connector-curvature="0"
         sodipodi:nodetypes="csscccccscssssscsscccsscscsscsssccsssscscsssscccscscsssssscsscssccc" />
      <path
         style="fill:#058398;stroke-width:0.35277778"
         d="m 68.375881,58.37678 c 0.242535,-0.09786 0.63941,-0.09786 0.881945,0 0.242535,0.09786 0.0441,0.177938 -0.440972,0.177938 -0.48507,0 -0.683507,-0.08007 -0.440973,-0.177938 z M 57.527965,55.435417 c -0.317955,-0.205478 -0.361467,-0.344131 -0.109014,-0.347376 0.231084,-0.0028 0.518265,0.153349 0.638181,0.347376 0.270688,0.437985 0.148563,0.437985 -0.529167,0 z m -2.326573,-1.85208 -0.672038,-0.79375 0.79375,0.672037 c 0.436563,0.369621 0.79375,0.726808 0.79375,0.793751 0,0.282311 -0.283913,0.07389 -0.915462,-0.672038 z m 25.433517,0.08819 c 0.351185,-0.388055 0.717894,-0.705555 0.814907,-0.705555 0.09701,0 -0.110944,0.3175 -0.46213,0.705555 -0.351185,0.388056 -0.717894,0.705556 -0.814907,0.705556 -0.09701,0 0.110944,-0.3175 0.46213,-0.705556 z m -18.145063,-0.4005 c -2.116666,-0.35109 -8.054693,-2.292205 -8.762767,-2.86451 -0.839385,-0.67844 -0.915015,0.0936 -0.121556,1.240877 0.657226,0.950298 0.572713,0.905118 -0.503049,-0.268922 -1.517464,-1.656096 -3.864636,-6.417751 -4.20963,-8.539984 -0.285542,-1.756506 0.01101,-2.925295 0.742214,-2.925295 0.289418,0 0.428101,0.15875 0.308185,0.352778 -0.119915,0.194028 0.113823,0.352778 0.519419,0.352778 0.405596,0 0.82672,0.277813 0.935832,0.617361 0.645702,2.009385 1.040098,2.64413 1.928309,3.103442 1.371291,0.709122 2.176301,0.642966 3.342956,-0.274724 0.550457,-0.432991 0.879997,-0.591741 0.732311,-0.352778 -0.254091,0.411127 -0.124829,0.49203 0.919645,0.575588 0.242535,0.0194 0.563052,0.194028 0.71226,0.388056 0.169255,0.220097 0.448614,0.121447 0.742775,-0.262298 0.411147,-0.536357 0.498114,-0.297497 0.679523,1.86635 0.178726,2.13184 1.587189,6.333448 2.123099,6.333448 0.08335,0 0.846199,-0.243035 1.695212,-0.540078 2.435808,-0.852212 4.805599,-2.632964 6.55806,-4.927978 1.197937,-1.568811 1.558105,-1.876399 1.391527,-1.188381 l -0.22475,0.928285 2.906633,-1.040301 c 1.598648,-0.572165 3.224133,-1.131344 3.612188,-1.24262 0.388056,-0.111276 0.943681,-0.385586 1.234722,-0.609577 0.291042,-0.223992 1.640417,-0.949357 2.998611,-1.611923 1.358195,-0.662566 2.77719,-1.488787 3.153325,-1.836046 0.376136,-0.34726 0.882015,-0.631382 1.124176,-0.631382 0.242164,0 0.504324,-0.515937 0.582577,-1.146527 0.104737,-0.843951 0.157184,-0.686974 0.198741,0.594822 0.06066,1.870961 -0.768498,5.708307 -1.605632,7.430872 -0.902826,1.857738 -3.419791,5.447442 -3.966691,5.657306 -0.290526,0.111486 -0.147693,-0.202362 0.317408,-0.697439 1.117058,-1.189054 0.732608,-1.476401 -1.031129,-0.770694 -1.965234,0.786331 -2.362396,0.726663 -2.641238,-0.396811 -0.628337,-2.531625 -3.5506,-3.460924 -5.319794,-1.69173 -0.904205,0.904205 -1.16015,2.708671 -0.526351,3.710891 0.216819,0.342854 0.184951,0.611273 -0.0936,0.788348 -0.569772,0.36221 -8.062881,0.275331 -10.453525,-0.121204 z m 9.854785,-8.792542 c 0,-0.205479 0.15875,-0.275485 0.352778,-0.155569 0.194028,0.119916 0.352778,0.288035 0.352778,0.373598 0,0.08556 -0.15875,0.155569 -0.352778,0.155569 -0.194028,0 -0.352778,-0.168119 -0.352778,-0.373598 z M 48.451828,38.854861 c 0,-0.873125 0.0688,-1.230312 0.152882,-0.79375 0.08409,0.436563 0.08409,1.150938 0,1.5875 -0.08408,0.436563 -0.152882,0.07937 -0.152882,-0.79375 z"
         id="path31"
         inkscape:connector-curvature="0"
         sodipodi:nodetypes="csscccccscssssscsscccssscscscccssssssscsssssscsscsscsscccssssssccs" />
      <path
         style="fill:#03798f;stroke-width:0.35277778"
         d="m 63.701576,53.450745 c -0.388055,-0.07642 -1.57868,-0.312556 -2.645833,-0.524754 -2.226352,-0.4427 -5.149077,-1.901818 -5.46652,-2.729062 -0.156334,-0.407399 -0.287935,-0.445984 -0.477114,-0.139886 -0.191951,0.310583 -0.600004,0.329146 -1.538582,0.06999 -1.368929,-0.377979 -2.606089,-2.006063 -2.992491,-3.938071 l -0.205265,-1.026328 1.194847,0.670876 c 1.149039,0.645157 7.452941,2.899127 8.108274,2.899127 0.175184,0 0.331138,-0.674687 0.346563,-1.499305 0.02698,-1.442566 0.04638,-1.414838 0.512548,0.732703 0.696303,3.207735 1.539484,4.501022 2.839999,4.356047 1.655513,-0.184548 4.424445,-1.742798 6.262097,-3.524071 l 1.70519,-1.652874 -0.810345,1.411111 c -0.561856,0.978399 -0.634621,1.270636 -0.237292,0.953009 0.344929,-0.275737 0.65638,-0.323279 0.782368,-0.119425 0.115123,0.186272 0.570634,0.299014 1.012246,0.250537 0.710449,-0.07799 0.787635,0.04288 0.67013,1.049401 -0.07304,0.625647 0.0383,1.457245 0.247423,1.847995 0.299953,0.560467 0.263781,0.755139 -0.171334,0.922109 -0.593651,0.227806 -7.971143,0.220433 -9.136909,-0.0091 z m 15.343659,-2.356406 c -0.0012,-0.231782 -0.238477,-0.874507 -0.527294,-1.428277 -0.608511,-1.166746 -0.381643,-1.775022 0.569282,-1.52635 0.366158,0.09575 0.665741,0.06486 0.665741,-0.06864 0,-0.373442 3.086201,-1.198844 3.507938,-0.938196 0.204939,0.12666 0.372618,0.06217 0.372618,-0.143308 0,-0.205478 0.119062,-0.335143 0.264583,-0.288143 0.417752,0.134924 1.873747,-1.004533 1.614653,-1.263625 -0.128118,-0.128117 -0.03703,-0.232941 0.202406,-0.232941 0.941197,0 -0.864979,3.870436 -2.081642,4.460726 -2.334091,1.132434 -4.586196,1.83372 -4.588285,1.428752 z M 82.77339,48.81325 c -0.118252,-0.118251 -0.489035,0.07191 -0.823964,0.42257 -0.582162,0.609513 -0.5727,0.618975 0.215002,0.215003 0.453181,-0.232414 0.727213,-0.519321 0.608962,-0.637573 z m 0.572027,-0.862602 c -0.25314,-0.253139 -0.417453,-0.273968 -0.417453,-0.05292 0,0.470881 0.417199,0.888079 0.652639,0.652639 0.100249,-0.100248 -0.0056,-0.370123 -0.235186,-0.599723 z"
         id="path29"
         inkscape:connector-curvature="0"
         sodipodi:nodetypes="cscscscsscssscscccssscccccscscssscccccccsccc" />
    </g>
  </g>
</svg>
